<svg xmlns="http://www.w3.org/2000/svg" width="23" height="22" fill="none" viewBox="0 0 23 22">
  <path fill="#FF3E54" d="M11.514 5.61c2.953 0 5.39 2.437 5.39 5.39 0 3-2.437 5.39-5.39 5.39-3 0-5.39-2.39-5.39-5.39a5.39 5.39 0 0 1 5.39-5.39Zm0 8.906c1.922 0 3.469-1.547 3.469-3.516a3.46 3.46 0 0 0-3.469-3.469C9.545 7.531 8 9.078 8 11a3.51 3.51 0 0 0 3.515 3.516Zm6.844-9.094a1.26 1.26 0 0 0-1.266-1.266 1.26 1.26 0 0 0-1.265 1.266 1.26 1.26 0 0 0 1.265 1.266 1.26 1.26 0 0 0 1.266-1.266Zm3.562 1.266c.094 1.734.094 6.937 0 8.671-.093 1.688-.468 3.141-1.687 4.407-1.219 1.218-2.719 1.593-4.406 1.687-1.735.094-6.938.094-8.672 0-1.688-.094-3.14-.469-4.406-1.687-1.22-1.266-1.594-2.72-1.688-4.407-.094-1.734-.094-6.937 0-8.671C1.155 5 1.53 3.5 2.749 2.28 4.014 1.062 5.467.687 7.155.594 8.889.5 14.092.5 15.827.594c1.687.094 3.187.469 4.406 1.687C21.452 3.5 21.827 5 21.92 6.687Zm-2.25 10.5c.563-1.36.422-4.641.422-6.188 0-1.5.14-4.781-.422-6.188-.375-.89-1.078-1.64-1.968-1.968-1.407-.563-4.688-.422-6.188-.422-1.547 0-4.828-.14-6.187.422A3.616 3.616 0 0 0 3.31 4.813C2.749 6.218 2.889 9.5 2.889 11c0 1.547-.14 4.828.422 6.188a3.554 3.554 0 0 0 2.016 2.015c1.359.563 4.64.422 6.187.422 1.5 0 4.781.14 6.188-.422.89-.375 1.64-1.078 1.968-2.015Z"/>
</svg>
