<svg xmlns="http://www.w3.org/2000/svg" width="51" height="22" fill="none" viewBox="0 0 51 22">
  <path fill="#FF3E54" d="M31.2 1.313s-1.406 0-2.11.39c-1.015.469-1.405 1.406-1.405 3.828 0 0 .546-.547 1.25-.781 2.421-.86 2.265-2.422 2.265-3.438Zm-9.062 2.812c.468-2.11 2.422-3.047 4.297-2.813l-5.079 19.375s-1.718.157-2.578-.312c-1.093-.547-1.64-.938-2.265-3.594-.625-2.343-2.266-9.297-2.422-9.765-.39-1.094-.86-1.172-1.25 0-.156.468-1.797 7.421-2.422 9.765-.625 2.657-1.172 3.047-2.266 3.594-.86.469-2.578.313-2.578.313L.497 1.313c1.797-.235 3.828.703 4.297 2.812L7.45 14.438 9.716 6c.547-2.578 1.64-3.828 3.75-3.828 2.187 0 3.203 1.328 3.75 3.828l2.265 8.438 2.657-10.313Zm9.062.39v12.422c0 2.422-.234 2.97-1.328 3.516-.86.39-2.187.235-2.187.235V8.813c0-1.641-.157-2.188 1.015-2.735.547-.234.938-.39 1.406-.625.782-.469 1.094-.937 1.094-.937Zm12.735 6.563 6.484 9.61s-2.813.39-4.14-.86c-1.094-.937-1.876-2.187-4.141-5.547-.078 0-.47-.781-1.016 0-2.734 3.985-3.203 4.766-4.14 5.547-1.329 1.25-4.22.86-4.22.86l6.485-9.61-6.484-9.687s2.734-.47 4.14.78c1.016.938 1.875 2.345 4.22 5.704.546.781.937 0 1.015 0 2.343-3.36 3.203-4.766 4.218-5.703 1.329-1.25 4.141-.781 4.141-.781l-6.562 9.687Z"/>
</svg>
