<svg xmlns="http://www.w3.org/2000/svg" width="41" height="38" fill="none" viewBox="0 0 41 38">
  <path fill="#FF3E54" d="M33.459 12.906c4.219 1.406 7.344 3.75 7.344 6.094 0 2.5-3.281 4.922-7.813 6.406l-.703.235c.078.312.156.703.235 1.015.859 4.532.156 8.203-1.954 9.453-2.03 1.172-5.312 0-8.672-2.89-.39-.313-.703-.625-1.093-.938-.235.235-.547.469-.782.703-3.437 3.047-7.03 4.297-9.14 3.047-2.031-1.172-2.656-4.61-1.875-8.906.156-.469.234-.938.312-1.406-.312-.078-.703-.235-1.015-.313C3.928 23.922.803 21.422.803 19c0-2.344 2.968-4.61 7.11-6.094.468-.156.937-.312 1.483-.469-.156-.39-.234-.859-.312-1.25-.86-4.453-.234-7.968 1.797-9.14 2.11-1.25 5.703.078 9.297 3.203.156.234.39.39.625.625.312-.313.625-.625.937-.86 3.438-2.968 6.797-4.218 8.828-3.046 2.11 1.25 2.735 5 1.797 9.61-.078.312-.156.624-.156.937.39.078.781.234 1.25.39Zm-10.625-6.64c-.313.234-.547.546-.86.78a43.475 43.475 0 0 1 3.282 4.22c1.797.156 3.515.39 5.312.78.078-.233.078-.468.157-.78.859-3.985.312-7.11-1.016-7.813-1.25-.703-3.906.235-6.875 2.813ZM13.85 23.063c-.391-.704-.782-1.329-1.172-2.032-.469 1.172-.86 2.344-1.25 3.438 1.172.312 2.422.468 3.672.625a28.538 28.538 0 0 1-1.25-2.032Zm-2.422-9.375c.39 1.093.781 2.187 1.25 3.359.39-.703.781-1.328 1.172-2.031.39-.625.78-1.329 1.171-1.954-1.25.157-2.421.313-3.593.626Zm2.187 5.39c.547 1.016 1.094 2.11 1.64 3.125.626 1.016 1.25 2.031 1.954 3.047 1.172.078 2.344.156 3.594.156 1.172 0 2.422-.078 3.593-.156l1.875-3.047A24.736 24.736 0 0 0 27.913 19c-.469-1.094-1.094-2.11-1.64-3.125-.625-1.016-1.25-2.031-1.954-3.047-1.093-.078-2.343-.156-3.515-.156-1.25 0-2.422.078-3.594.156-.703 1.016-1.328 2.031-1.953 3.047-.547 1.016-1.172 2.11-1.64 3.203Zm14.063 3.985c-.39.625-.782 1.328-1.172 1.953 1.25-.078 2.422-.313 3.672-.625-.39-1.172-.86-2.266-1.328-3.438-.391.703-.704 1.406-1.172 2.11Zm1.172-6.016a43.129 43.129 0 0 0 1.25-3.36 42.742 42.742 0 0 0-3.594-.624c.39.624.781 1.328 1.172 1.953.39.703.781 1.328 1.172 2.03Zm-8.047-8.75a44.663 44.663 0 0 0-2.344 2.812 45.305 45.305 0 0 1 4.61 0 27.398 27.398 0 0 0-2.266-2.812ZM11.74 3.453c-1.25.781-1.719 3.594-1.015 7.344.078.469.156.86.312 1.25 1.719-.39 3.438-.625 5.234-.781 1.016-1.485 2.11-2.891 3.36-4.22-.235-.155-.39-.312-.625-.546-3.047-2.656-5.938-3.75-7.266-3.047ZM9.787 24.078c.547-1.719 1.172-3.437 1.953-5-.703-1.64-1.406-3.281-1.875-5-.469.156-.937.235-1.406.39-3.516 1.25-6.016 3.126-6.016 4.532a3.62 3.62 0 0 0 1.485 2.344c1.328 1.093 3.281 1.875 4.922 2.422.312.156.625.234.937.312Zm9.14 7.656.704-.703c-1.172-1.328-2.344-2.734-3.36-4.14-1.796-.157-3.515-.391-5.312-.782-.078.391-.156.86-.234 1.328-.704 3.672-.235 6.407 1.015 7.188.938.313 1.875.313 2.735-.156 1.64-.625 3.125-1.563 4.453-2.735Zm1.876-1.875c.86-.937 1.64-1.875 2.343-2.89-.78.078-1.562.078-2.343.078-.782 0-1.563 0-2.344-.078a31.269 31.269 0 0 0 2.344 2.89Zm10.234 2.344c.235-1.719.156-3.516-.156-5.234l-.235-.938c-1.796.39-3.515.703-5.312.86a33.837 33.837 0 0 1-3.36 4.14c.391.313.704.625 1.016.938 2.89 2.422 5.547 3.36 6.797 2.656.703-.625 1.172-1.484 1.25-2.422Zm1.406-8.437c3.907-1.25 6.641-3.282 6.641-4.766 0-1.406-2.578-3.281-6.172-4.531-.39-.156-.781-.235-1.172-.39-.547 1.718-1.172 3.358-1.953 4.921.781 1.64 1.485 3.281 2.031 5 .235-.078.391-.156.625-.234Zm-11.64-1.172c-2.032 0-3.594-1.563-3.594-3.594 0-1.953 1.563-3.516 3.594-3.516A3.501 3.501 0 0 1 24.318 19c0 2.031-1.562 3.594-3.515 3.594Z"/>
</svg>
