<svg xmlns="http://www.w3.org/2000/svg" width="25" height="20" fill="none" viewBox="0 0 25 20">
  <path fill="#FF3E54" d="M22.06 5.125v.656c0 6.516-4.922 13.969-13.969 13.969-2.812 0-5.39-.797-7.547-2.203.375.047.75.094 1.172.094a9.895 9.895 0 0 0 6.094-2.11c-2.156-.047-3.984-1.453-4.594-3.422.328.047.61.094.938.094.422 0 .89-.094 1.265-.187a4.928 4.928 0 0 1-3.937-4.829v-.046c.656.375 1.453.562 2.25.609a4.843 4.843 0 0 1-2.203-4.078c0-.938.234-1.781.656-2.485a14.28 14.28 0 0 0 10.172 5.157 4.62 4.62 0 0 1-.14-1.125 4.921 4.921 0 0 1 4.92-4.922c1.406 0 2.672.562 3.61 1.547A10.396 10.396 0 0 0 23.84.625a4.809 4.809 0 0 1-2.156 2.719 9.225 9.225 0 0 0 2.813-.75c-.657.984-1.5 1.828-2.438 2.531Z"/>
</svg>
