<svg xmlns="http://www.w3.org/2000/svg" width="40" height="40" fill="none" viewBox="0 0 40 40">
  <path fill="#FF3E54" d="M4.568 13.281C3.631 15.312 3.162 17.656 3.162 20c0 6.64 3.828 12.266 9.375 15L4.568 13.281Zm26.407 5.938c0 1.406-.547 3.047-1.25 5.312l-1.641 5.547-6.016-17.812c1.016-.079 1.875-.157 1.875-.157.938-.156.782-1.484-.078-1.406 0 0-2.734.235-4.453.235-1.64 0-4.375-.235-4.375-.235-.86-.078-1.016 1.328-.078 1.406l1.719.157 2.578 7.03-3.594 10.938-6.094-17.968c1.016-.079 1.954-.157 1.954-.157.859-.156.78-1.484-.157-1.406 0 0-2.656.235-4.453.235H5.896c2.97-4.532 8.047-7.5 13.907-7.5 4.297 0 8.203 1.64 11.172 4.374-.079-.078-.157-.078-.235-.078-1.562 0-2.734 1.485-2.734 2.97 0 1.405.781 2.577 1.64 3.905.625 1.094 1.329 2.5 1.329 4.61Zm-10.938 2.265 5.156 13.985c0 .078.078.156.078.234-1.718.625-3.593.938-5.468.938-1.64 0-3.203-.235-4.766-.625l5-14.532Zm14.297-9.453A16.332 16.332 0 0 1 36.365 20c0 6.172-3.281 11.484-8.281 14.375l5.078-14.688c1.016-2.343 1.328-4.218 1.328-5.937 0-.625-.078-1.172-.156-1.719ZM39.178 20c0-10.625-8.75-19.375-19.375-19.375C9.1.625.428 9.375.428 20c0 10.703 8.672 19.375 19.375 19.375 10.625 0 19.375-8.672 19.375-19.375Zm-.938 0c0 10.234-8.281 18.516-18.437 18.516C9.568 38.516 1.287 30.234 1.287 20c0-10.156 8.281-18.438 18.516-18.438C29.959 1.563 38.24 9.845 38.24 20Z"/>
</svg>
