<svg width="36" height="42" viewBox="0 0 36 42" fill="none" xmlns="http://www.w3.org/2000/svg">
<path d="M16.1211 0.10416C10.9714 1.01324 7.13452 5.03574 6.3609 10.3374C6.3062 10.6833 6.27494 12.2843 6.27494 14.3197C6.27494 17.5618 6.28276 17.7388 6.43904 18.0847C6.68129 18.6398 6.95479 18.9536 7.41584 19.2191L7.83782 19.4684V20.2005C7.83782 20.812 7.86907 21.0131 8.02536 21.351C8.43171 22.252 9.20533 22.7508 10.1978 22.7508H10.7916L11.112 23.3542C11.2918 23.6921 11.6669 24.2472 11.9404 24.6012L12.4483 25.2448L11.7919 26.5963L11.1355 27.9398L9.04123 28.6558C5.89204 29.7339 4.75114 30.4016 3.22734 32.0589C1.29719 34.1586 0.171916 36.8537 0.0468862 39.6453L0 40.7314L0.218802 40.9486L0.437605 41.1738H17.9965H35.5554L35.7742 40.9486L35.993 40.7314L35.9461 39.6453C35.8211 36.8537 34.6958 34.1586 32.7657 32.0589C31.2419 30.4016 30.101 29.7339 26.9518 28.6558L24.8575 27.9398L24.2011 26.5883L23.5447 25.2448L23.9198 24.7701C24.8966 23.5633 25.4905 22.244 25.8031 20.5947L26.0062 19.5328H26.983C27.8426 19.5328 28.0067 19.5087 28.3584 19.3397C28.8663 19.0984 29.2961 18.6559 29.5305 18.133L29.7181 17.7227V14.3197C29.7181 12.2923 29.6868 10.6833 29.6321 10.3374C29.257 7.7469 28.1708 5.48626 26.4048 3.61982C24.5918 1.69707 22.271 0.474228 19.661 0.0719795C18.9186 -0.0486946 16.8556 -0.024559 16.1211 0.10416ZM19.6844 1.79361C23.6541 2.50961 26.8111 5.54257 27.8035 9.59725C27.8973 9.99145 28.0067 10.5305 28.038 10.7799L28.0849 11.2465H27.3503H26.6158L26.5689 10.5385C26.4907 9.32372 26.0062 7.91585 25.2951 6.80564C24.2636 5.22078 22.7164 4.05425 20.8487 3.46696C20.1533 3.24975 20.1142 3.24171 17.9965 3.24171C15.8788 3.24171 15.8397 3.24975 15.1443 3.46696C13.2766 4.05425 11.7294 5.22078 10.6979 6.80564C9.98677 7.91585 9.50228 9.32372 9.42413 10.5385L9.37725 11.2465H8.65051C8.11132 11.2465 7.91596 11.2223 7.91596 11.1419C7.93159 10.3696 8.40045 8.63989 8.86931 7.61013C9.38506 6.48384 9.9477 5.67934 10.8776 4.72198C12.4796 3.06472 14.3316 2.10736 16.6681 1.72925C17.1994 1.64075 19.0514 1.68098 19.6844 1.79361ZM20.0595 5.01965C20.755 5.18055 22.0365 5.8161 22.6226 6.29076C23.6072 7.09526 24.4746 8.50313 24.795 9.83055C24.9825 10.6109 25.0138 11.9705 24.8419 11.9705C24.7872 11.9705 24.3261 11.8981 23.826 11.8096C21.4426 11.3832 19.2077 10.265 17.4495 8.6238L16.7853 8.00434L15.9257 8.05261C14.2612 8.1411 12.6671 8.86515 11.4871 10.088C10.9714 10.6109 10.9792 10.627 11.2918 9.5168C11.9872 7.02285 14.1753 5.16446 16.7384 4.88288C17.5667 4.79439 19.3953 4.86679 20.0595 5.01965ZM16.3242 9.88687C16.6055 10.2167 17.8168 11.1419 18.5748 11.6004C20.1064 12.5417 21.7865 13.1692 23.615 13.491C24.1464 13.5876 24.67 13.66 24.7716 13.66C24.9513 13.66 24.9591 13.6841 24.92 13.9576C24.8966 14.1266 24.8575 14.6415 24.8341 15.1081C24.7403 16.7251 24.3574 19.6052 24.0839 20.7798C23.8807 21.6084 23.2634 22.8876 22.7398 23.5553C21.552 25.0597 19.8954 25.8883 18.0746 25.9044C16.7696 25.9125 15.8085 25.639 14.7535 24.939C14.144 24.5368 13.3157 23.7162 12.925 23.1289L12.6749 22.7508H13.4173H14.1518L14.3941 23.1852C14.6519 23.6599 14.9567 23.9415 15.4959 24.1909C15.8085 24.3357 16.0117 24.3598 17.2151 24.3598C18.4888 24.3598 18.606 24.3437 18.9811 24.1667C19.8563 23.7484 20.3408 22.9519 20.3408 21.9463C20.3408 20.9407 19.8563 20.1442 18.9811 19.7259C18.606 19.5489 18.4888 19.5328 17.2151 19.5328C16.0117 19.5328 15.8085 19.5569 15.4959 19.7018C14.9567 19.9511 14.6519 20.2327 14.3941 20.7074L14.1518 21.1418H13.0656H11.9872L11.9013 20.8281C11.6669 19.927 11.2527 16.5159 11.0808 14.0622L11.0339 13.3703L11.6512 12.5337C12.7921 10.9729 13.7377 10.2328 15.0349 9.87882C15.8163 9.66965 16.1367 9.6777 16.3242 9.88687ZM9.43195 13.9174C9.48665 14.9713 9.67419 17.2641 9.75234 17.7146L9.79141 17.9399L9.10374 17.9077C7.86907 17.8434 7.8847 17.8755 7.85344 15.0839L7.83 12.8555H8.60362H9.37725L9.43195 13.9174ZM28.1396 15.0839C28.1083 17.8755 28.1239 17.8434 26.8893 17.9077L26.2016 17.9399L26.2407 17.7146C26.311 17.2641 26.5064 14.9793 26.5611 13.9174L26.6079 12.8555H27.3894H28.163L28.1396 15.0839ZM10.0884 20.0718C10.1352 20.3775 10.1978 20.7315 10.229 20.8683C10.2759 21.1096 10.2603 21.1177 10.0727 21.0855C9.64294 20.997 9.40069 20.5545 9.40069 19.8466C9.40069 19.5328 9.40069 19.5328 9.70545 19.5328H10.0024L10.0884 20.0718ZM18.0668 21.1901C18.903 21.3671 18.903 22.5255 18.0668 22.7025C17.7464 22.7669 16.6837 22.7669 16.3633 22.7025C15.7694 22.5738 15.5193 21.8659 15.9335 21.4395C16.0429 21.3268 16.207 21.2142 16.3008 21.1981C16.5821 21.1418 17.8011 21.1418 18.0668 21.1901ZM23.3025 28.7121C23.3103 28.8972 22.6148 30.6832 22.1069 31.8014L21.6614 32.7588L20.3799 31.4394L19.0905 30.12L19.3484 29.8304C19.489 29.6775 20.2158 28.8811 20.966 28.0766L22.3257 26.5963L22.8102 27.5939C23.0837 28.1329 23.3025 28.6397 23.3025 28.7121ZM15.1599 28.5593L16.7384 30.1924L15.535 31.4796L14.3394 32.7668L13.894 31.8014C13.4173 30.7717 12.6827 28.9052 12.6827 28.7282C12.6827 28.6076 13.4798 26.9342 13.5423 26.9342C13.5658 26.9342 14.2925 27.6663 15.1599 28.5593ZM18.0903 27.6019H19.0827L18.5279 28.2134C18.2231 28.5512 17.9574 28.8328 17.9262 28.8489C17.9027 28.857 17.5745 28.5512 17.2151 28.1731C16.5665 27.4973 16.5587 27.4813 16.8243 27.5456C16.9728 27.5778 17.5433 27.6019 18.0903 27.6019ZM11.6278 30.7314C12.4639 32.8955 13.597 35.0114 15.4256 37.811C15.8397 38.4466 16.2539 39.0982 16.3477 39.2591L16.5274 39.5648H9.09593C2.86006 39.5648 1.66446 39.5487 1.66446 39.4522C1.66446 39.1545 1.92234 37.8915 2.10207 37.2961C2.87569 34.7861 4.55578 32.6301 6.70473 31.3911C7.19704 31.1095 10.8229 29.766 11.1277 29.758C11.2136 29.7499 11.3621 30.0476 11.6278 30.7314ZM26.7955 30.3935C27.8504 30.7636 28.921 31.19 29.2492 31.375C31.406 32.5898 33.1095 34.77 33.8909 37.2961C34.0707 37.8915 34.3285 39.1545 34.3285 39.4522C34.3285 39.5487 33.1329 39.5648 26.8971 39.5648H19.4656L19.6453 39.2591C19.7391 39.0982 20.1533 38.4466 20.5674 37.811C22.3726 35.0516 23.5525 32.8553 24.3652 30.7314C24.5762 30.1924 24.7872 29.7499 24.8341 29.7499C24.881 29.7499 25.764 30.0396 26.7955 30.3935ZM19.364 32.8875L20.7706 34.3356L20.6299 34.6011C20.5518 34.7459 20.208 35.2849 19.872 35.7917C19.5359 36.2986 18.9811 37.1513 18.6529 37.6903C18.3247 38.2374 18.0278 38.6799 18.0043 38.6799C17.9809 38.6799 17.6839 38.2374 17.3479 37.6903C17.0119 37.1513 16.4024 36.202 15.996 35.5906C15.5897 34.9792 15.2615 34.4241 15.2615 34.3678C15.2615 34.2712 17.8168 31.4394 17.9105 31.4394C17.934 31.4394 18.5904 32.091 19.364 32.8875Z" fill="#FF3E54"/>
</svg>