<svg width="40" height="37" viewBox="0 0 40 37" fill="none" xmlns="http://www.w3.org/2000/svg">
<path d="M19.3359 0.336449C19.2109 0.415204 19.0469 0.529757 18.9844 0.601354C18.9219 0.66579 18.414 1.55358 17.8515 2.55592L16.8359 4.39594L14.5781 4.69664C12.4375 4.98302 12.3047 5.01166 12.039 5.20497C11.5469 5.56295 11.3672 6.17151 11.5937 6.65836C11.664 6.81588 12.3203 7.46024 13.3281 8.36951L14.9531 9.8229L14.5703 11.9135L14.1797 14.0113L14.3359 14.3549C14.4453 14.584 14.6015 14.7702 14.8047 14.899C15.0859 15.0852 15.1719 15.0995 15.625 15.078C16.1015 15.0566 16.2422 14.9993 18.0625 14.1115L20 13.1736L21.9297 14.1115C23.7344 14.985 23.8984 15.0494 24.375 15.078C24.8437 15.1067 24.9062 15.0924 25.2031 14.899C25.4297 14.7487 25.5703 14.5769 25.6719 14.3406L25.8125 13.9969L25.4297 11.9063L25.0469 9.81574L26.7031 8.32655C28.1094 7.05214 28.3672 6.78724 28.4453 6.52233C28.5937 6.05696 28.4453 5.61306 28.0469 5.27656C27.6875 4.98302 27.7734 4.99734 24.9219 4.62504L23.164 4.39594L22.1484 2.55592C21.1094 0.672949 20.9765 0.47964 20.6094 0.307811C20.3047 0.164618 19.6172 0.178938 19.3359 0.336449ZM20.8594 3.62986C21.7109 5.23361 22.0234 5.66318 22.4453 5.78489C22.5859 5.82785 23.4687 5.95673 24.414 6.07844C25.3594 6.20015 26.2187 6.32186 26.3203 6.34334C26.4922 6.3863 26.375 6.50801 25.0156 7.71798C23.7109 8.885 23.5156 9.09262 23.4375 9.36469C23.3594 9.64391 23.3906 9.90166 23.6875 11.534C23.8828 12.5507 24.0312 13.3812 24.0156 13.3812C24.0078 13.3812 23.1953 12.9946 22.2109 12.5221C20.5703 11.7345 20.3828 11.6629 20 11.6629C19.6094 11.6629 19.4297 11.7345 17.7969 12.5221C16.8125 12.9946 16 13.3812 15.9844 13.3812C15.9765 13.3812 16.1172 12.5507 16.3125 11.534C16.6172 9.8945 16.6406 9.64391 16.5625 9.36469C16.4844 9.09262 16.2812 8.87784 14.9765 7.71798C13.5078 6.40778 13.4844 6.37914 13.7109 6.33618C13.8437 6.3147 14.7031 6.20015 15.625 6.07844C16.5469 5.95673 17.414 5.82069 17.5547 5.78489C17.9765 5.66318 18.2969 5.23361 19.1406 3.6227C19.5937 2.77071 19.9765 2.06907 20 2.06907C20.0234 2.07623 20.4062 2.77071 20.8594 3.62986Z" fill="#FF3E54"/>
<path d="M6.38285 2.82805C6.12504 3.06431 6.05473 3.3507 6.19535 3.6514C6.25785 3.78743 6.75004 4.2886 7.2891 4.7683C8.24223 5.62745 8.27348 5.64893 8.61723 5.64893C9.03129 5.64893 9.34379 5.41266 9.42191 5.04036C9.49223 4.68954 9.33598 4.48907 8.25785 3.51537C7.30473 2.65622 7.28129 2.6419 6.93754 2.6419C6.6641 2.6419 6.5391 2.68486 6.38285 2.82805Z" fill="#FF3E54"/>
<path d="M31.7422 3.51537C30.6484 4.50339 30.5078 4.68954 30.5859 5.05468C30.6641 5.42698 30.9609 5.64893 31.3906 5.64893C31.7422 5.64893 31.7578 5.64177 32.7734 4.6967C33.4609 4.06666 33.8203 3.6872 33.8438 3.55117C33.9531 3.02852 33.6172 2.6419 33.0625 2.6419C32.7188 2.6419 32.6953 2.65622 31.7422 3.51537Z" fill="#FF3E54"/>
<path d="M4.42973 7.1167C4.2188 7.31717 4.14067 7.55344 4.20317 7.83266C4.2188 7.92573 4.32817 8.0904 4.42973 8.19064L4.63286 8.36963H6.18755H7.75005L7.97661 8.162C8.1563 7.99733 8.20317 7.88994 8.20317 7.65367C8.20317 7.4174 8.1563 7.31001 7.97661 7.14534L7.75005 6.93771H6.18755H4.63286L4.42973 7.1167Z" fill="#FF3E54"/>
<path d="M32.0234 7.14534C31.8438 7.31001 31.7969 7.4174 31.7969 7.65367C31.7969 7.88994 31.8438 7.99733 32.0234 8.162L32.25 8.36963H33.8125H35.3672L35.5781 8.18348C35.8672 7.91142 35.8672 7.39592 35.5781 7.12386L35.3672 6.93771H33.8125H32.25L32.0234 7.14534Z" fill="#FF3E54"/>
<path d="M7.28906 10.532C6.74999 11.0188 6.25781 11.52 6.19531 11.656C5.96093 12.1644 6.32812 12.6655 6.93749 12.6655C7.28124 12.6655 7.30468 12.6512 8.25781 11.7849C9.33593 10.8184 9.49218 10.6179 9.42187 10.2671C9.34374 9.89477 9.03124 9.6585 8.61718 9.6585C8.27343 9.6585 8.24218 9.67998 7.28906 10.532Z" fill="#FF3E54"/>
<path d="M30.836 9.83033C30.5781 10.0523 30.4922 10.4317 30.6485 10.7038C30.7188 10.8184 31.2031 11.3052 31.7422 11.7849C32.6953 12.6512 32.7188 12.6655 33.0625 12.6655C33.4766 12.6655 33.7813 12.4436 33.8594 12.0856C33.9375 11.7205 33.7344 11.4556 32.711 10.532C31.7578 9.67998 31.7266 9.6585 31.3828 9.6585C31.125 9.6585 30.9844 9.70146 30.836 9.83033Z" fill="#FF3E54"/>
<path d="M11.6094 16.7177L11.4062 16.911V19.8679V22.832H8.48438H5.57031L5.35938 23.0181L5.15625 23.2114V26.1683V29.1324H2.78125H0.414062L0.203125 29.3185L0 29.5118V32.9986V36.4853L0.203125 36.6786L0.414062 36.8647H20H39.5859L39.7969 36.6786L40 36.4853V32.9986V29.5118L39.7969 29.3185L39.5859 29.1324H37.2188H34.8438V26.1683V23.2114L34.6406 23.0181L34.4297 22.832H31.5156H28.5938V19.8679V16.911L28.3906 16.7177L28.1797 16.5315H20H11.8203L11.6094 16.7177ZM27.0312 20.3977V22.832H20H12.9688V20.3977V17.9634H20H27.0312V20.3977ZM33.2812 26.6981V29.1324H31.8672H30.4531L30.2266 29.34C30.0469 29.5047 30 29.6121 30 29.8484C30 30.0846 30.0469 30.192 30.2266 30.3567L30.4531 30.5643H34.4453H38.4375V32.9986V35.4328H20H1.5625V32.9986V30.5643H13.1953H24.8203L25.0312 30.3782C25.3203 30.1061 25.3203 29.5906 25.0312 29.3185L24.8203 29.1324H15.7734H6.71875V28.2732V27.4141H10.2266H13.7266L13.9375 27.2279C14.2266 26.9559 14.2266 26.4404 13.9375 26.1683L13.7266 25.9822H10.2266H6.71875V25.123V24.2639H20H33.2812V26.6981Z" fill="#FF3E54"/>
<path d="M16.2969 26.1683C16.1328 26.3186 16.0938 26.426 16.0938 26.6981C16.0938 26.9702 16.1328 27.0776 16.2969 27.2279C16.4609 27.3783 16.5781 27.4141 16.875 27.4141C17.1719 27.4141 17.2891 27.3783 17.4531 27.2279C17.7422 26.9558 17.7422 26.4404 17.4531 26.1683C17.2891 26.0179 17.1719 25.9821 16.875 25.9821C16.5781 25.9821 16.4609 26.0179 16.2969 26.1683Z" fill="#FF3E54"/>
<path d="M27.1485 29.304C26.9297 29.5117 26.836 29.7766 26.9063 30.0343C27.1016 30.7503 28.2891 30.7503 28.4844 30.0343C28.5547 29.7766 28.461 29.5117 28.2422 29.304C28.1016 29.1752 27.9688 29.1322 27.6954 29.1322C27.4219 29.1322 27.2891 29.1752 27.1485 29.304Z" fill="#FF3E54"/>
</svg>