<svg xmlns="http://www.w3.org/2000/svg" width="61" height="58" fill="none" viewBox="0 0 61 58">
  <rect width="60" height="56.656" x=".5" y=".672" fill="#fff" rx="10"/>
  <path fill="#FF3E54" d="M29.836 10.8a1.981 1.981 0 0 0-.351.264c-.063.065-.57.953-1.133 1.955l-1.016 1.84-2.258.3c-2.14.287-2.273.316-2.539.51-.492.357-.672.966-.445 1.453.07.157.726.801 1.734 1.71l1.625 1.454-.383 2.09-.39 2.098.156.344c.11.23.266.415.469.544.281.186.367.2.82.18.477-.022.617-.08 2.438-.967l1.937-.938 1.93.938c1.805.873 1.969.938 2.445.966.469.029.532.014.828-.179.227-.15.367-.322.47-.558l.14-.344-.383-2.09-.383-2.091 1.656-1.49c1.407-1.274 1.664-1.539 1.742-1.804.149-.465 0-.909-.398-1.245-.36-.294-.273-.28-3.125-.652l-1.758-.229-1.015-1.84c-1.04-1.883-1.172-2.076-1.54-2.248-.304-.143-.992-.129-1.273.029Zm1.524 3.293c.851 1.604 1.164 2.033 1.586 2.155.14.043 1.023.172 1.968.294.946.121 1.805.243 1.907.264.171.043.054.165-1.305 1.375-1.305 1.167-1.5 1.375-1.578 1.647-.078.279-.047.537.25 2.17.195 1.016.343 1.846.328 1.846-.008 0-.82-.386-1.805-.859-1.64-.787-1.828-.859-2.21-.859-.391 0-.571.072-2.204.86-.984.472-1.797.858-1.812.858-.008 0 .132-.83.328-1.847.304-1.64.328-1.89.25-2.17-.078-.271-.281-.486-1.586-1.646-1.469-1.31-1.492-1.339-1.266-1.382.133-.021.992-.136 1.914-.257.922-.122 1.79-.258 1.93-.294.422-.122.742-.551 1.586-2.162.453-.852.836-1.554.86-1.554.023.007.405.702.859 1.561Zm-14.477-.802c-.258.236-.328.523-.188.823.063.137.555.638 1.094 1.117.953.86.984.881 1.328.881.414 0 .727-.236.805-.608.07-.351-.086-.552-1.164-1.525-.953-.86-.977-.874-1.32-.874-.274 0-.399.043-.555.186Zm25.36.688c-1.094.988-1.235 1.174-1.157 1.539.078.372.375.594.805.594.352 0 .367-.007 1.383-.952.687-.63 1.047-1.01 1.07-1.146.11-.522-.226-.909-.781-.909-.344 0-.367.014-1.32.873ZM14.93 17.58c-.21.2-.289.437-.226.716.015.093.124.258.226.358l.203.179h3.117l.227-.208c.18-.165.226-.272.226-.508s-.046-.344-.226-.509l-.227-.207h-3.117l-.203.179Zm27.593.028c-.18.165-.226.273-.226.509s.047.343.226.508l.227.208h3.117l.211-.186a.754.754 0 0 0 0-1.06l-.21-.186H42.75l-.227.207ZM17.79 20.995c-.54.487-1.032.988-1.095 1.124-.234.508.133 1.01.743 1.01.343 0 .367-.015 1.32-.881 1.078-.967 1.234-1.167 1.164-1.518-.078-.372-.39-.609-.805-.609-.343 0-.375.022-1.328.874Zm23.546-.702c-.258.222-.344.602-.188.874.07.114.555.601 1.094 1.08.953.867.977.881 1.32.881.415 0 .72-.221.797-.58.078-.365-.125-.63-1.148-1.553-.953-.852-.984-.874-1.328-.874-.258 0-.399.043-.547.172ZM22.11 27.18l-.204.194v5.921H16.07l-.21.186-.204.194v5.921h-4.742l-.21.186-.204.193v6.973l.203.194.211.186h39.172l.21-.186.204-.194v-6.973l-.203-.193-.211-.186h-4.742v-5.921l-.203-.194-.211-.186h-5.836v-5.921l-.203-.193-.211-.186H22.32l-.21.186Zm15.421 3.68v2.435H23.47v-4.868h14.06v2.434Zm6.25 6.301v2.434h-2.828l-.226.208c-.18.165-.227.272-.227.509 0 .236.047.343.227.508l.226.207h7.984v4.869H12.063v-4.869H35.32l.211-.186c.29-.272.29-.787 0-1.06l-.21-.185H17.218v-1.719h7.008l.21-.186a.754.754 0 0 0 0-1.06l-.21-.186h-7.008v-1.718H43.78v2.434Z"/>
  <path fill="#FF3E54" d="M26.797 36.631c-.164.15-.203.258-.203.53s.039.38.203.53c.164.15.281.186.578.186.297 0 .414-.036.578-.186a.754.754 0 0 0 0-1.06c-.164-.15-.281-.186-.578-.186-.297 0-.414.036-.578.186Zm10.851 3.136c-.219.208-.313.473-.242.73.195.717 1.383.717 1.578 0 .07-.257-.023-.522-.242-.73-.14-.129-.274-.171-.547-.171-.274 0-.406.043-.547.171Z"/>
</svg>
