<svg xmlns="http://www.w3.org/2000/svg" width="186" height="22" fill="none" viewBox="0 0 186 22">
  <path fill="url(#a)" d="M12.816 17V7.694L9.45 14.47H7.47L4.104 7.694V17H.496V1.38h3.916L8.46 9.542l4.07-8.162h3.894V17h-3.608Zm5.445-3.454c0-.763.213-1.43.638-2.002.426-.572 1.012-1.02 1.76-1.342.748-.337 1.606-.506 2.574-.506.47 0 .932.044 1.386.132.455.073.851.183 1.188.33v-.506c0-.63-.19-1.115-.572-1.452-.381-.337-.96-.506-1.738-.506-.645 0-1.254.11-1.826.33-.557.22-1.151.535-1.782.946l-1.056-2.244a9.233 9.233 0 0 1 2.376-1.122 9.19 9.19 0 0 1 2.64-.374c1.731 0 3.073.418 4.026 1.254.968.821 1.452 2.017 1.452 3.586v3.014c0 .352.052.601.154.748.118.132.316.213.594.242V17a9.754 9.754 0 0 1-.836.132c-.249.03-.469.044-.66.044-.66 0-1.166-.132-1.518-.396-.337-.264-.55-.623-.638-1.078l-.066-.506a5.244 5.244 0 0 1-1.848 1.518 5.08 5.08 0 0 1-2.222.506c-.762 0-1.452-.161-2.068-.484a3.76 3.76 0 0 1-1.43-1.32 3.43 3.43 0 0 1-.528-1.87Zm6.996.44c.162-.132.294-.279.396-.44a.865.865 0 0 0 .154-.462V12.05a4.64 4.64 0 0 0-.99-.264 4.87 4.87 0 0 0-.99-.11c-.645 0-1.18.147-1.606.44-.425.279-.638.653-.638 1.122 0 .264.074.506.22.726.147.22.345.396.594.528.264.132.572.198.924.198a2.99 2.99 0 0 0 1.056-.198c.352-.132.646-.3.88-.506Zm13.947-5.522c-.85 0-1.62.14-2.31.418-.69.264-1.188.66-1.496 1.188V17h-3.52V5.45h3.234v2.332c.396-.777.91-1.386 1.54-1.826.63-.44 1.29-.667 1.98-.682h.352a.91.91 0 0 1 .22.022v3.168ZM48.453 17l-3.014-4.62-1.232 1.254V17h-3.52V.94h3.52v9.284l3.916-4.774h3.718l-4.158 4.972L52.193 17h-3.74Zm9.7.22c-.982 0-1.855-.154-2.617-.462a6.086 6.086 0 0 1-1.958-1.298 5.623 5.623 0 0 1-1.21-1.87 6.153 6.153 0 0 1-.418-2.244c0-1.115.242-2.127.726-3.036a5.746 5.746 0 0 1 2.134-2.222c.924-.572 2.038-.858 3.344-.858 1.305 0 2.412.279 3.322.836.924.557 1.628 1.29 2.112 2.2.484.895.726 1.87.726 2.926 0 .205-.015.41-.044.616-.015.19-.03.36-.044.506H55.69c.044.513.183.946.418 1.298.25.352.565.623.946.814.381.176.785.264 1.21.264.528 0 1.02-.125 1.474-.374.47-.25.792-.587.968-1.012l2.992.836a5.035 5.035 0 0 1-1.254 1.606 5.958 5.958 0 0 1-1.892 1.078c-.719.264-1.518.396-2.398.396Zm-2.551-7.062h5.016a3.022 3.022 0 0 0-.418-1.254 2.191 2.191 0 0 0-.88-.836 2.434 2.434 0 0 0-1.21-.308c-.455 0-.865.103-1.232.308-.352.19-.638.47-.858.836-.22.352-.36.77-.418 1.254Zm17.658 6.226c-.322.132-.682.264-1.078.396a7.682 7.682 0 0 1-1.21.308 6.178 6.178 0 0 1-1.254.132 4.52 4.52 0 0 1-1.628-.286 2.546 2.546 0 0 1-1.166-.99c-.278-.455-.418-1.056-.418-1.804V8.112h-1.474V5.45h1.474V1.776h3.52V5.45h2.354v2.662h-2.354v4.818c0 .381.096.66.286.836.191.161.433.242.726.242.25 0 .514-.044.792-.132.294-.088.543-.183.748-.286l.682 2.794ZM89.425 5.956c-.044-.073-.198-.183-.462-.33a9.582 9.582 0 0 0-2.288-.968 5.179 5.179 0 0 0-1.408-.198c-.616 0-1.093.11-1.43.33-.338.205-.506.528-.506.968 0 .352.124.63.374.836.264.205.638.389 1.122.55.484.147 1.078.323 1.782.528.997.264 1.862.587 2.596.968.733.367 1.29.843 1.672 1.43.396.587.594 1.364.594 2.332 0 .88-.162 1.628-.484 2.244a4.117 4.117 0 0 1-1.32 1.474 5.836 5.836 0 0 1-1.87.814 9.722 9.722 0 0 1-2.178.242 13.11 13.11 0 0 1-2.354-.22 14.671 14.671 0 0 1-2.288-.66 10.998 10.998 0 0 1-2.024-1.056l1.584-3.146c.058.073.249.213.572.418.322.19.718.396 1.188.616.484.205 1.019.389 1.606.55.586.161 1.18.242 1.782.242.645 0 1.122-.103 1.43-.308.322-.205.484-.491.484-.858 0-.396-.169-.704-.506-.924-.323-.22-.77-.418-1.342-.594a141.91 141.91 0 0 0-1.936-.594c-.954-.293-1.746-.623-2.376-.99-.616-.367-1.078-.814-1.386-1.342-.294-.528-.44-1.188-.44-1.98 0-1.1.256-2.024.77-2.772a4.863 4.863 0 0 1 2.112-1.716c.88-.396 1.84-.594 2.882-.594.733 0 1.437.088 2.112.264.689.176 1.327.396 1.914.66a18.26 18.26 0 0 1 1.606.792l-1.584 2.992Zm9.399 11.264c-.983 0-1.855-.154-2.618-.462a6.088 6.088 0 0 1-1.958-1.298 5.625 5.625 0 0 1-1.21-1.87 6.153 6.153 0 0 1-.418-2.244c0-1.115.242-2.127.726-3.036a5.747 5.747 0 0 1 2.134-2.222c.924-.572 2.038-.858 3.344-.858 1.305 0 2.412.279 3.322.836.924.557 1.628 1.29 2.112 2.2.484.895.726 1.87.726 2.926a4.4 4.4 0 0 1-.044.616c-.015.19-.03.36-.044.506H96.36c.044.513.183.946.418 1.298.25.352.564.623.946.814a2.85 2.85 0 0 0 1.21.264c.528 0 1.02-.125 1.474-.374.469-.25.792-.587.968-1.012l2.992.836a5.052 5.052 0 0 1-1.254 1.606 5.961 5.961 0 0 1-1.892 1.078c-.719.264-1.518.396-2.398.396Zm-2.552-7.062h5.016c-.059-.484-.198-.902-.418-1.254a2.194 2.194 0 0 0-.88-.836 2.434 2.434 0 0 0-1.21-.308c-.455 0-.865.103-1.232.308-.352.19-.638.47-.858.836-.22.352-.36.77-.418 1.254Zm14.795 6.886a4.896 4.896 0 0 1-2.09-.44 5.05 5.05 0 0 1-1.628-1.254 6.251 6.251 0 0 1-1.034-1.87 6.747 6.747 0 0 1-.374-2.266c0-.85.132-1.635.396-2.354a6.057 6.057 0 0 1 1.1-1.892 4.93 4.93 0 0 1 1.694-1.276 5.086 5.086 0 0 1 2.178-.462c.865 0 1.628.19 2.288.572a4.2 4.2 0 0 1 1.584 1.54V5.45h3.058v10.758c0 1.173-.286 2.185-.858 3.036-.557.85-1.342 1.503-2.354 1.958-.997.47-2.156.704-3.476.704-1.232 0-2.295-.205-3.19-.616a6.878 6.878 0 0 1-2.31-1.694l1.892-1.914a4.49 4.49 0 0 0 1.584 1.144c.631.293 1.305.44 2.024.44.572 0 1.1-.103 1.584-.308a2.424 2.424 0 0 0 1.144-.99c.293-.455.44-1.041.44-1.76v-1.122a3.514 3.514 0 0 1-1.54 1.452 4.576 4.576 0 0 1-2.112.506Zm1.21-2.794c.279 0 .535-.037.77-.11.249-.088.477-.198.682-.33.205-.147.396-.315.572-.506.176-.205.315-.425.418-.66v-2.42a2.953 2.953 0 0 0-.638-1.056 2.989 2.989 0 0 0-.924-.704 2.417 2.417 0 0 0-1.056-.242c-.367 0-.711.08-1.034.242a2.389 2.389 0 0 0-.836.704c-.22.293-.396.623-.528.99a3.74 3.74 0 0 0-.176 1.144c0 .425.066.814.198 1.166.147.352.345.667.594.946a2.674 2.674 0 0 0 1.958.836ZM138.911 17h-3.52v-6.49c0-.748-.139-1.298-.418-1.65a1.312 1.312 0 0 0-1.078-.528c-.469 0-.931.19-1.386.572a3.106 3.106 0 0 0-.968 1.474V17h-3.52v-6.49c0-.763-.139-1.313-.418-1.65a1.312 1.312 0 0 0-1.078-.528c-.454 0-.909.19-1.364.572a3.26 3.26 0 0 0-.99 1.474V17h-3.52V5.45h3.168v1.936a4.26 4.26 0 0 1 1.716-1.584c.734-.381 1.584-.572 2.552-.572.954 0 1.687.227 2.2.682.514.44.844.96.99 1.562a4.472 4.472 0 0 1 1.738-1.65c.734-.396 1.555-.594 2.464-.594.734 0 1.328.14 1.782.418.455.264.8.616 1.034 1.056.235.44.396.917.484 1.43.088.499.132.99.132 1.474V17Zm7.823.22c-.983 0-1.855-.154-2.618-.462a6.088 6.088 0 0 1-1.958-1.298 5.63 5.63 0 0 1-1.21-1.87 6.147 6.147 0 0 1-.418-2.244c0-1.115.242-2.127.726-3.036a5.75 5.75 0 0 1 2.134-2.222c.924-.572 2.039-.858 3.344-.858 1.305 0 2.413.279 3.322.836.924.557 1.628 1.29 2.112 2.2.484.895.726 1.87.726 2.926a4.4 4.4 0 0 1-.044.616c-.015.19-.029.36-.044.506h-8.536c.044.513.183.946.418 1.298.249.352.565.623.946.814.381.176.785.264 1.21.264.528 0 1.019-.125 1.474-.374.469-.25.792-.587.968-1.012l2.992.836a5.024 5.024 0 0 1-1.254 1.606 5.961 5.961 0 0 1-1.892 1.078c-.719.264-1.518.396-2.398.396Zm-2.552-7.062h5.016c-.059-.484-.198-.902-.418-1.254a2.189 2.189 0 0 0-.88-.836 2.435 2.435 0 0 0-1.21-.308c-.455 0-.865.103-1.232.308-.352.19-.638.47-.858.836-.22.352-.359.77-.418 1.254ZM165.621 17h-3.52v-6.49c0-.763-.146-1.313-.44-1.65-.278-.352-.652-.528-1.122-.528-.322 0-.652.088-.99.264a3.321 3.321 0 0 0-.924.726c-.264.308-.469.66-.616 1.056V17h-3.52V5.45h3.168v1.936a4.39 4.39 0 0 1 1.1-1.166c.44-.323.946-.565 1.518-.726a6.336 6.336 0 0 1 1.87-.264c.748 0 1.35.14 1.804.418.47.264.822.616 1.056 1.056.25.44.411.917.484 1.43.088.499.132.99.132 1.474V17Zm9.798-.616c-.323.132-.682.264-1.078.396a7.71 7.71 0 0 1-1.21.308 6.189 6.189 0 0 1-1.254.132 4.51 4.51 0 0 1-1.628-.286 2.544 2.544 0 0 1-1.166-.99c-.279-.455-.418-1.056-.418-1.804V8.112h-1.474V5.45h1.474V1.776h3.52V5.45h2.354v2.662h-2.354v4.818c0 .381.095.66.286.836.19.161.432.242.726.242.249 0 .513-.044.792-.132.293-.088.542-.183.748-.286l.682 2.794Zm5.793.836a8.806 8.806 0 0 1-2.882-.484c-.939-.323-1.731-.8-2.376-1.43l1.21-2.222c.704.513 1.386.902 2.046 1.166.675.264 1.305.396 1.892.396.455 0 .807-.073 1.056-.22.249-.147.374-.374.374-.682 0-.22-.073-.389-.22-.506-.147-.132-.374-.25-.682-.352-.293-.103-.66-.213-1.1-.33-.88-.293-1.613-.58-2.2-.858-.587-.279-1.027-.616-1.32-1.012-.293-.41-.44-.939-.44-1.584 0-.777.191-1.452.572-2.024.396-.587.953-1.041 1.672-1.364.719-.323 1.577-.484 2.574-.484.792 0 1.562.125 2.31.374.763.25 1.474.667 2.134 1.254l-1.364 2.2c-.66-.455-1.247-.785-1.76-.99a4.014 4.014 0 0 0-1.496-.308c-.249 0-.477.03-.682.088a1.055 1.055 0 0 0-.506.308c-.117.132-.176.308-.176.528 0 .22.059.396.176.528.132.132.33.25.594.352l1.034.33c.953.279 1.745.565 2.376.858.631.279 1.1.63 1.408 1.056.323.41.484.96.484 1.65 0 1.173-.425 2.097-1.276 2.772-.836.66-1.98.99-3.432.99Z"/>
  <defs>
    <linearGradient id="a" x1="-1" x2="187" y1="9" y2="9" gradientUnits="userSpaceOnUse">
      <stop stop-color="#111184"/>
      <stop offset="1" stop-color="#FF3E54" stop-opacity=".84"/>
    </linearGradient>
  </defs>
</svg>
