<svg width="50" height="47" viewBox="0 0 50 47" fill="none" xmlns="http://www.w3.org/2000/svg">
<path d="M39.514 0.91741C37.6693 1.4532 36.3387 2.64486 35.7339 4.27993C35.492 4.95429 35.4819 5.0559 35.4819 7.36533C35.4819 10.0258 35.5223 10.2752 36.1573 11.3837C36.9839 12.8433 39.01 14.0442 40.643 14.0442H41.1268V13.2682V12.5015L40.5724 12.4461C39.7761 12.3722 38.9898 12.0119 38.3447 11.4207C37.3669 10.5154 37.0948 9.66552 37.0948 7.39304C37.0948 5.86882 37.2258 5.00971 37.5484 4.37231C37.8709 3.72567 38.758 2.92199 39.4837 2.60791C40.0079 2.3862 40.1894 2.35849 41.1268 2.35849C42.0643 2.35849 42.2457 2.3862 42.7699 2.60791C43.4956 2.92199 44.3827 3.72567 44.7053 4.37231C45.0681 5.09285 45.1589 5.8873 45.1589 8.57547C45.1589 11.2452 45.0984 11.587 44.6145 11.6978C44.171 11.7994 43.8484 11.6609 43.6872 11.3191C43.5763 11.0696 43.546 10.423 43.546 8.17825C43.546 5.06514 43.5259 4.95429 42.911 4.35384C42.4473 3.91043 41.8929 3.69796 41.147 3.69796C40.4111 3.69796 39.897 3.87348 39.4233 4.27993C38.758 4.86191 38.7076 5.07438 38.7076 7.39304C38.7076 9.75789 38.758 9.94265 39.4938 10.5523C39.9978 10.9773 40.5018 11.1158 41.3082 11.0696L41.9332 11.0419V11.3653C41.9433 12.0488 42.5884 12.8618 43.3646 13.1574C43.5763 13.2405 44.0198 13.3052 44.3524 13.3052C45.3705 13.3052 46.177 12.8525 46.5802 12.0581C46.7515 11.7163 46.7717 11.4022 46.7717 8.35376C46.7717 4.66792 46.7616 4.55707 46.1064 3.41159C45.4613 2.28459 44.302 1.40701 42.911 0.972836C41.9534 0.686467 40.401 0.658753 39.514 0.91741ZM41.53 5.36075C41.8425 5.50855 41.9332 5.97967 41.9332 7.41152C41.9332 8.96345 41.8223 9.37915 41.3889 9.48076C40.9454 9.58238 40.6228 9.44381 40.4615 9.10202C40.2902 8.72327 40.2599 6.16443 40.4212 5.75797C40.6127 5.30532 41.0764 5.13904 41.53 5.36075Z" fill="#FF3E54"/>
<path d="M22.3275 10.5246C21.8134 10.7371 21.2187 11.3468 21.0675 11.7994C20.9767 12.0858 20.8054 12.2428 20.2308 12.6216C18.2854 13.8871 16.1887 14.7278 13.9207 15.1527C12.6304 15.3837 12.1062 15.4298 9.71725 15.513C7.7617 15.5776 7.68106 15.5869 7.09641 15.8455C6.33032 16.1873 5.56423 16.8986 5.18119 17.6007L4.88886 18.155V20.6953V23.2357L5.16103 23.7438C5.51383 24.3997 6.02792 24.9539 6.60249 25.2865C6.85449 25.425 7.04601 25.5728 7.02585 25.6098C7.01577 25.6375 5.43319 26.7737 3.50789 28.1317L0 30.5982V38.5795V46.5609H13.709H27.418V38.5795V30.5982L26.6115 30.0254L25.8051 29.4527L25.8253 26.9123L25.8555 24.3627L26.2789 24.2519C27.2668 23.984 28.1941 23.2265 28.7082 22.2657C28.9602 21.8039 28.9804 21.6653 28.9804 20.6953C28.9804 19.7254 28.9602 19.5868 28.7082 19.1249C28.1941 18.1642 27.2668 17.4067 26.2789 17.1388L25.8555 17.028L25.8051 14.4045C25.7547 11.5223 25.7447 11.5131 25.0794 10.9311C24.8979 10.7648 24.5754 10.5708 24.3738 10.4969C23.8597 10.2937 22.8315 10.3122 22.3275 10.5246ZM23.7891 12.0119C23.8899 12.0581 24.021 12.2336 24.0814 12.3906C24.1621 12.5939 24.1923 15.088 24.1923 20.7138C24.1923 29.4527 24.2024 29.3049 23.648 29.4342C23.5069 29.4619 23.2649 29.4619 23.1238 29.4342C22.5694 29.3049 22.5795 29.4527 22.5795 20.7046C22.5795 15.3467 22.6097 12.5846 22.6803 12.4091C22.8718 11.9565 23.3355 11.7902 23.7891 12.0119ZM20.9465 23.9747L20.9163 27.2541L20.4627 26.9677C19.8175 26.5705 18.1442 25.8038 17.1362 25.4435C15.6141 24.9077 12.9832 24.3997 11.7232 24.3904H11.2897V20.6953V17.0003H11.7232C13.0034 16.991 15.7754 16.446 17.2874 15.8917C18.235 15.5499 19.8679 14.7924 20.4627 14.4229L20.9163 14.1366L20.9465 17.416C20.9566 19.2173 20.9566 22.1734 20.9465 23.9747ZM9.67692 20.7046V24.4181L9.01164 24.3535C8.63867 24.3165 8.17498 24.2241 7.97338 24.1502C7.55002 23.9932 7.00569 23.5313 6.79401 23.1618L6.64281 22.9124H7.35849H8.0641V22.1734V21.4344H7.25769H6.45128V20.6953V19.9563H7.25769H8.0641V19.2173V18.4783H7.35849H6.64281L6.79401 18.2196C6.96537 17.9333 7.5097 17.4437 7.84234 17.2866C8.12458 17.1481 8.78987 17.028 9.30396 17.0095L9.67692 17.0003V20.7046ZM26.6821 19.2358C27.1055 19.6422 27.3172 20.1226 27.3172 20.6953C27.3172 21.4805 26.8131 22.2473 26.0874 22.5983L25.8051 22.7369V20.6953V18.6538L26.0874 18.7924C26.2386 18.8663 26.5007 19.0603 26.6821 19.2358ZM12.328 26.0163L12.9026 26.0717V28.9261V31.7806H12.0558H11.199L11.0982 31.291C11.0377 31.0323 10.7454 29.6929 10.443 28.3349L9.89869 25.85L10.8261 25.9054C11.3301 25.9424 12.0054 25.9885 12.328 26.0163ZM15.6242 26.6629C17.358 27.171 18.7692 27.8176 20.2308 28.7691C20.8054 29.1478 20.9767 29.3049 21.0675 29.5912C21.2187 30.0439 21.8134 30.6536 22.3275 30.8661C22.8416 31.0785 23.8496 31.097 24.3939 30.8938C24.777 30.7552 24.8173 30.7552 25.0088 30.9122C25.1197 30.9954 25.1902 31.097 25.1802 31.1339C25.16 31.1801 21.2792 34.4688 18.1241 37.12L17.8519 37.3509L17.2068 36.7782L16.5617 36.2147H13.709H10.8563L10.2112 36.7782L9.56604 37.3509L9.29388 37.12C5.99768 34.3487 2.25795 31.1801 2.23779 31.1247C2.20755 31.0508 8.26571 26.7553 8.32619 26.8199C8.34635 26.8384 8.65883 28.2056 9.02172 29.8499C9.3846 31.4942 9.69709 32.9353 9.72733 33.0461L9.77773 33.2586H12.1466H14.5154V29.7945C14.5154 27.0694 14.5456 26.3396 14.6464 26.3765C14.7069 26.395 15.1504 26.5243 15.6242 26.6629ZM5.0199 35.6881C6.74361 37.1569 8.16491 38.3948 8.16491 38.4317C8.16491 38.5056 1.98579 43.7711 1.74386 43.9189C1.64306 43.9744 1.61282 42.8474 1.61282 38.4317C1.61282 34.0161 1.64306 32.8891 1.74386 32.9445C1.80434 32.9907 3.28612 34.2193 5.0199 35.6881ZM25.785 41.2215L25.7547 44.0113L22.5089 41.2585C20.7147 39.7435 19.253 38.4687 19.253 38.4317C19.253 38.3948 20.7147 37.12 22.5089 35.605L25.7547 32.8522L25.785 35.6419C25.7951 37.1754 25.7951 39.6881 25.785 41.2215ZM20.0595 41.3601L24.404 45.0367L19.0514 45.0644C16.1181 45.0736 11.2998 45.0736 8.36651 45.0644L3.01396 45.0367L7.35849 41.3601L11.703 37.6927H13.709H15.7149L20.0595 41.3601Z" fill="#FF3E54"/>
<path d="M30.059 14.9033L28.3252 16.4921L28.9602 17.0741L29.5852 17.6469L31.3291 16.0487L33.0629 14.4598L32.4278 13.8779L31.8028 13.3051L30.059 14.9033Z" fill="#FF3E54"/>
<path d="M35.4819 22.1733V27.3464H41.1268H46.7717V22.1733V17.0002H41.1268H35.4819V22.1733ZM45.1589 22.1733V25.8684H41.1268H37.0948V22.1733V18.4782H41.1268H45.1589V22.1733Z" fill="#FF3E54"/>
<path d="M38.7078 20.6953V21.4343H41.127H43.5462V20.6953V19.9563H41.127H38.7078V20.6953Z" fill="#FF3E54"/>
<path d="M38.7078 23.6514V24.3904H41.127H43.5462V23.6514V22.9123H41.127H38.7078V23.6514Z" fill="#FF3E54"/>
<path d="M30.6436 20.6953V21.4343H32.2564H33.8692V20.6953V19.9563H32.2564H30.6436V20.6953Z" fill="#FF3E54"/>
<path d="M28.8998 24.3719L28.3252 24.8984L30.0691 26.4966L31.8028 28.0854L32.4379 27.5035L33.0629 26.9307L31.3694 25.3788C30.442 24.5289 29.6356 23.8361 29.5852 23.8361C29.5247 23.8361 29.2223 24.0763 28.8998 24.3719Z" fill="#FF3E54"/>
<path d="M38.9597 30.4965C35.8349 31.1986 33.214 33.6188 32.458 36.4918C32.1758 37.5726 32.1758 39.2908 32.458 40.3716C33.2544 43.4016 35.976 45.8126 39.3327 46.4315C40.3407 46.6163 42.5684 46.5609 43.4958 46.3299C44.4836 46.0897 46.046 45.323 46.8625 44.6948C48.2637 43.614 49.3725 41.9697 49.7958 40.3716C50.0781 39.2908 50.0781 37.5726 49.7958 36.4918C49.0398 33.5911 46.4089 31.1801 43.2438 30.4872C42.0845 30.2378 40.1088 30.2378 38.9597 30.4965ZM42.5886 31.9838C44.0098 32.2609 45.3303 32.9537 46.3384 33.9422C47.1044 34.6812 47.5883 35.4109 47.9512 36.3532C48.2133 37.0368 48.2334 37.1938 48.2334 38.4317C48.2334 39.6972 48.2133 39.8173 47.9209 40.5656C47.5379 41.5633 46.8625 42.4963 46.0158 43.2168C42.1753 46.5147 36.0768 45.0828 34.2926 40.4732C34.0406 39.8358 34.0204 39.6511 34.0204 38.4317C34.0204 37.1938 34.0406 37.0368 34.3027 36.3532C35.5325 33.1754 39.0907 31.2909 42.5886 31.9838Z" fill="#FF3E54"/>
<path d="M38.2542 34.8937C37.8107 35.1062 37.5083 35.3833 37.2865 35.7713C37.1151 36.0854 37.095 36.3348 37.095 38.4317C37.095 40.5287 37.1151 40.7781 37.2865 41.0922C37.6796 41.785 38.3147 42.1268 39.2118 42.1268C39.7864 42.1268 39.9476 42.0714 42.0645 41.1014C43.2943 40.5379 44.4131 39.9837 44.5341 39.8728C44.9474 39.531 45.1591 39.0414 45.1591 38.4317C45.1591 37.8221 44.9474 37.3325 44.5341 36.9907C44.4131 36.8798 43.2943 36.3256 42.0645 35.7621C39.9073 34.7829 39.7964 34.7367 39.1916 34.7367C38.8187 34.7459 38.4356 34.8013 38.2542 34.8937ZM41.379 37.2124C42.4274 37.702 43.3346 38.1823 43.385 38.2655C43.4656 38.3856 43.4656 38.4779 43.385 38.5888C43.264 38.792 39.5444 40.5472 39.242 40.5564C38.7784 40.5657 38.7078 40.2793 38.7078 38.4595C38.7078 36.5657 38.7683 36.3071 39.1816 36.3071C39.3428 36.3163 40.3206 36.7228 41.379 37.2124Z" fill="#FF3E54"/>
</svg>