<svg width="51" height="84" viewBox="0 0 51 84" fill="none" xmlns="http://www.w3.org/2000/svg">
<path d="M16.5931 0.302773C13.5515 0.894608 10.7704 2.56511 8.94755 4.90382C8.11425 5.97294 7.26012 7.7389 6.96847 8.97984C6.91639 9.19939 6.83306 9.23758 5.99976 9.38076C3.26028 9.85805 0.937462 11.8722 0.239574 14.3827C-0.041665 15.385 -0.041665 16.8933 0.239574 17.8956C0.895797 20.2629 3.03113 22.2198 5.61436 22.8212C6.37474 23.0025 6.80181 23.0121 14.0619 23.0121H21.697V24.5298V26.0572L19.0201 26.0858L16.3327 26.1144L15.7077 26.3913C14.9056 26.754 14.114 27.4795 13.7182 28.2145L13.4161 28.7872L13.364 34.5147C13.312 40.1085 13.3015 40.2517 13.0932 40.6717C12.8224 41.1967 12.312 41.6549 11.7495 41.884C11.4058 42.0176 10.9371 42.0558 8.9788 42.0844L6.61432 42.1226L6.5414 41.8362C6.37474 41.1108 5.28104 40.1467 4.35399 39.908C3.58319 39.7075 2.36449 39.8221 1.70826 40.1467C0.624975 40.6908 0 41.6931 0 42.8672C0 44.0413 0.624975 45.0436 1.70826 45.5877C2.36449 45.9123 3.58319 46.0268 4.35399 45.8264C5.27062 45.5877 6.37474 44.6236 6.5414 43.9172L6.6039 43.6404L9.33295 43.6118L12.062 43.5831L12.687 43.3063C13.489 42.9436 14.2807 42.2181 14.6765 41.4831L14.9786 40.9103L15.0306 35.1829C15.0931 28.835 15.0619 29.0736 15.791 28.3672C16.4681 27.7181 16.791 27.6513 19.3846 27.6131L21.697 27.5749V30.1332C21.697 32.6723 21.697 32.6819 21.9574 33.0828C22.2283 33.5124 23.0303 34.0756 23.749 34.3333L24.1969 34.486V39.4403V44.3945H22.947H21.697V45.1582V45.9218H23.572C25.3115 45.9218 25.4573 45.9123 25.6552 45.7309C25.8635 45.54 25.8635 45.4159 25.8635 40.2421C25.8635 37.3307 25.8948 34.9442 25.9469 34.9442C25.9885 34.9442 26.4885 35.011 27.0614 35.0874C27.6343 35.1638 28.353 35.2306 28.6551 35.2306H29.1967V39.2398C29.1967 43.1249 29.2071 43.2586 29.4051 43.4399C29.603 43.6213 29.7488 43.6308 33.6132 43.6308H37.6131L37.686 43.9077C37.8526 44.6236 38.9568 45.5877 39.8734 45.8264C40.5504 45.9982 41.8421 45.9123 42.4045 45.645C43.0399 45.3491 43.6545 44.7477 43.9566 44.1368C44.3107 43.4304 44.3315 42.3613 43.9982 41.674C43.4357 40.5189 42.4879 39.8985 41.1546 39.8316C40.1755 39.7744 39.5713 39.9176 38.9255 40.3376C38.3839 40.6908 37.7797 41.4162 37.686 41.8267L37.6131 42.1035H34.2382H30.8633V38.6671V35.2306H31.4154C32.1029 35.2306 33.9049 34.992 34.7486 34.801C36.4673 34.3906 37.6547 33.7892 38.1026 33.0924C38.3318 32.7296 38.363 32.5769 38.363 31.67V30.6487H39.5505C40.1963 30.6487 40.8838 30.6964 41.0713 30.7537C41.665 30.9446 41.6962 31.1259 41.6962 34.7056C41.6962 37.7793 41.7066 37.913 41.9045 38.0943C42.1025 38.2757 42.2483 38.2852 44.4044 38.2852H46.696V37.5216V36.7579H45.0294H43.3628V33.7987C43.3628 30.5246 43.342 30.4196 42.7066 29.7991C42.1025 29.2168 41.7379 29.1213 39.9567 29.1213H38.363V26.0667V23.0121H40.9983C43.2899 23.0121 43.7482 22.9834 44.4461 22.8212C47.0293 22.2198 49.1647 20.2629 49.8209 17.8956C50.1021 16.8933 50.1021 15.385 49.8209 14.3827C49.1647 12.0154 47.0293 10.0585 44.4461 9.45713C43.842 9.31394 43.2899 9.26621 42.2691 9.26621H40.8942L40.7171 8.50256C40.1442 6.0493 37.9464 3.96833 35.2798 3.34786C33.3007 2.88012 30.655 3.2715 29.2488 4.23561C29.0613 4.36926 28.9988 4.33107 28.3322 3.67242C26.551 1.92555 24.1136 0.703693 21.4783 0.245499C20.2492 0.0354919 17.8534 0.0641289 16.5931 0.302773ZM22.0512 2.04964C25.676 3.05194 28.3947 5.46701 29.4571 8.6171C29.6134 9.08485 29.78 9.45713 29.8321 9.45713C29.8842 9.45713 30.2696 9.39031 30.7071 9.29485C31.4675 9.14212 31.4779 9.13257 31.4154 8.89393C31.2383 8.20664 30.8217 7.18525 30.4467 6.49795L30.03 5.73429L30.4675 5.47656C31.5716 4.83699 33.4778 4.59835 34.8111 4.9229C36.1235 5.23792 37.3214 6.01112 38.0818 7.03251C38.7588 7.93936 39.0088 8.6362 39.0713 9.73396C39.1442 11.0322 38.863 11.9867 38.1443 12.97C37.9776 13.1991 37.8422 13.3995 37.863 13.4091C37.8839 13.4282 38.1651 13.6286 38.4984 13.8768C38.8422 14.125 39.1547 14.3255 39.1963 14.3255C39.5296 14.3255 40.4775 12.5881 40.7275 11.519L40.9046 10.7649L42.165 10.8317C44.0607 10.9272 45.0086 11.2135 46.1856 12.0727C46.8835 12.5786 47.7168 13.6763 47.9981 14.4686C48.2897 15.2705 48.2897 17.0078 47.9981 17.8096C47.5606 19.041 46.3731 20.282 45.0711 20.8738C44.0399 21.332 43.5711 21.3988 40.8942 21.4561L38.363 21.5134V20.7306V19.9574H39.8213C41.8108 19.9574 41.6962 20.0815 41.6962 17.8574V16.1391H42.1129H42.5295V15.3755V14.6118H41.4879C39.988 14.6118 40.0296 14.545 40.0296 16.7119V18.4301H39.1963C38.363 18.4301 38.363 18.4301 38.363 18.1724C38.363 17.4851 37.3214 16.5973 36.009 16.1678C34.7278 15.7382 32.6237 15.385 31.4154 15.3755H30.8633V14.3255C30.8633 13.1418 30.7383 12.76 30.2071 12.2349C29.5509 11.6049 29.3321 11.5572 26.5718 11.5572H24.1136L24.0407 11.2804C23.874 10.5644 22.7699 9.60032 21.8533 9.36167C21.0825 9.16121 19.8638 9.27576 19.2076 9.60032C18.1243 10.1444 17.4993 11.1467 17.4993 12.3208C17.4993 13.495 18.1243 14.4973 19.2076 15.0414C19.8638 15.3659 21.0825 15.4805 21.8533 15.28C22.7699 15.0414 23.874 14.0773 24.0407 13.3613L24.1136 13.0845H26.1656C27.4364 13.0845 28.3634 13.1227 28.5718 13.1895C29.0197 13.3327 29.1967 13.7527 29.1967 14.6405V15.3468L28.1655 15.4041C25.1969 15.5855 22.6345 16.4541 21.9574 17.5137C21.7075 17.9051 21.697 17.9815 21.697 19.7092V21.4943L14.1765 21.4561C5.98934 21.4179 6.23933 21.437 4.98938 20.8738C3.68735 20.282 2.4999 19.041 2.06242 17.8096C1.77076 17.0078 1.77076 15.2705 2.06242 14.4686C2.34365 13.6763 3.17695 12.5786 3.87484 12.0727C4.9998 11.2517 6.156 10.8794 7.57261 10.8794C10.0933 10.889 12.3537 12.4831 13.0932 14.7932C13.187 15.0796 13.2599 15.4996 13.2599 15.7287V16.1391H14.1453H15.0306V15.6332C15.0202 13.9914 13.8744 11.9581 12.2703 10.7649C11.5308 10.2208 10.2183 9.61941 9.38504 9.43804C8.67673 9.29485 8.66632 9.27576 9.05172 8.29255C10.1767 5.43838 12.562 3.26195 15.6556 2.25965C17.0618 1.80145 17.6555 1.72509 19.4575 1.76327C20.895 1.79191 21.2491 1.83009 22.0512 2.04964ZM21.6762 11.0799C23.0303 11.834 22.447 13.7527 20.8637 13.7527C19.9784 13.7527 19.3013 13.1322 19.3013 12.3208C19.3013 11.8054 19.5825 11.3472 20.0513 11.0799C20.2596 10.9654 20.5825 10.889 20.8637 10.889C21.145 10.889 21.4679 10.9654 21.6762 11.0799ZM32.8841 17.151C34.4986 17.361 36.1027 17.8669 36.4777 18.2774C36.5923 18.4015 36.5923 18.4588 36.4777 18.5828C36.1027 18.9933 34.2694 19.5565 32.582 19.7665C32.1237 19.8238 30.9779 19.8715 30.03 19.8715C29.0822 19.8715 27.9364 19.8238 27.4781 19.7665C25.7906 19.5565 23.9574 18.9933 23.5824 18.5828C23.3949 18.3824 23.5615 18.201 24.2178 17.8956C26.0094 17.0651 29.7488 16.7405 32.8841 17.151ZM24.3011 20.7306C26.0614 21.3034 27.5718 21.5038 30.03 21.5038C32.7383 21.5038 34.5194 21.227 36.5194 20.4824C36.686 20.4156 36.6964 20.5111 36.6964 21.6948C36.6964 22.9071 36.686 22.993 36.4673 23.1743C36.0819 23.4894 35.4048 23.7662 34.3736 24.0144C32.9778 24.3485 31.9675 24.4535 30.03 24.4535C28.0926 24.4535 27.0822 24.3485 25.6865 24.0144C24.6553 23.7662 23.9782 23.4894 23.6032 23.1743C23.3741 22.993 23.3636 22.9071 23.3636 21.6948C23.3636 20.5111 23.3741 20.4156 23.5511 20.4824C23.6449 20.5206 23.9886 20.6352 24.3011 20.7306ZM24.3011 25.3126C26.0614 25.8853 27.5718 26.0858 30.03 26.0858C32.7383 26.0858 34.5194 25.809 36.5194 25.0644C36.686 24.9976 36.6964 25.093 36.6964 26.2767C36.6964 27.489 36.686 27.5749 36.4673 27.7563C36.0819 28.0713 35.4048 28.3481 34.3736 28.5963C32.9778 28.9304 31.9675 29.0354 30.03 29.0354C28.0926 29.0354 27.0822 28.9304 25.6865 28.5963C24.6553 28.3481 23.9782 28.0713 23.6032 27.7563C23.3741 27.5749 23.3636 27.489 23.3636 26.2767C23.3636 25.093 23.3741 24.9976 23.5511 25.0644C23.6449 25.1026 23.9886 25.2171 24.3011 25.3126ZM24.3011 29.8945C26.0614 30.4673 27.5718 30.6677 30.03 30.6677C32.7383 30.6677 34.5194 30.3909 36.5194 29.6463C36.686 29.5795 36.6964 29.675 36.6964 30.8587C36.6964 32.071 36.686 32.1569 36.4673 32.3382C36.0819 32.6533 35.4048 32.9301 34.3736 33.1783C32.9778 33.5124 31.9675 33.6174 30.03 33.6174C28.0926 33.6174 27.0822 33.5124 25.6865 33.1783C24.6553 32.9301 23.9782 32.6533 23.6032 32.3382C23.3741 32.1569 23.3636 32.071 23.3636 30.8587C23.3636 29.675 23.3741 29.5795 23.5511 29.6463C23.6449 29.6845 23.9886 29.7991 24.3011 29.8945ZM4.17691 41.6262C4.89563 42.0272 5.15604 42.9531 4.71856 43.6118C3.89568 44.8527 1.80201 44.3181 1.80201 42.8672C1.80201 41.7599 3.14571 41.0535 4.17691 41.6262ZM41.6754 41.6262C43.0295 42.3804 42.4462 44.299 40.8629 44.299C39.2797 44.299 38.6963 42.3804 40.0505 41.6262C40.4984 41.3781 41.2275 41.3781 41.6754 41.6262Z" fill="#FF3E54"/>
<path d="M6.20806 49.8506C5.16643 50.1466 4.22897 50.9198 3.69774 51.903C3.43734 52.3803 3.4165 52.5234 3.4165 53.5257C3.4165 54.5471 3.43734 54.6617 3.71858 55.1962C4.11439 55.9313 4.90603 56.6567 5.70808 57.0195L6.33305 57.2963L10.2704 57.3249L14.1973 57.3536V56.5899V55.8263L10.635 55.7976C7.2601 55.769 7.04136 55.7594 6.59346 55.5685C4.67687 54.7476 4.6352 52.3898 6.51013 51.5116C6.71845 51.4161 7.04136 51.3302 7.21843 51.3302H7.53092V50.5188V49.7074L7.09344 49.717C6.84345 49.717 6.44763 49.7743 6.20806 49.8506Z" fill="#FF3E54"/>
<path d="M44.196 52.7621V53.5258H45.0293H45.8626V52.7621V51.9984H45.0293H44.196V52.7621Z" fill="#FF3E54"/>
<path d="M48.3625 74.9082V75.6718H49.1958H50.0291V74.9082V74.1445H49.1958H48.3625V74.9082Z" fill="#FF3E54"/>
<path d="M18.3638 82.5449V83.3085H19.1971H20.0304V82.5449V81.7812H19.1971H18.3638V82.5449Z" fill="#FF3E54"/>
</svg>