<svg width="51" height="46" viewBox="0 0 51 46" fill="none" xmlns="http://www.w3.org/2000/svg">
<path d="M16.5931 0.302834C13.5515 0.894669 10.7704 2.56517 8.94755 4.90388C8.11425 5.973 7.26012 7.73896 6.96847 8.9799C6.91639 9.19946 6.83306 9.23764 5.99976 9.38083C3.26028 9.85811 0.937462 11.8723 0.239574 14.3828C-0.041665 15.3851 -0.041665 16.8933 0.239574 17.8956C0.895797 20.263 3.03113 22.2198 5.61436 22.8212C6.37474 23.0026 6.80181 23.0121 14.0619 23.0121H21.697V24.5299V26.0572L19.0201 26.0859L16.3327 26.1145L15.7077 26.3913C14.9056 26.7541 14.114 27.4795 13.7182 28.2146L13.4161 28.7873L13.364 34.5147C13.312 40.1085 13.3015 40.2517 13.0932 40.6717C12.8224 41.1967 12.312 41.6549 11.7495 41.884C11.4058 42.0177 10.9371 42.0559 8.9788 42.0845L6.61432 42.1227L6.5414 41.8363C6.37474 41.1108 5.28104 40.1467 4.35399 39.9081C3.58319 39.7076 2.36449 39.8222 1.70826 40.1467C0.624975 40.6908 0 41.6931 0 42.8672C0 44.0414 0.624975 45.0437 1.70826 45.5878C2.36449 45.9123 3.58319 46.0269 4.35399 45.8264C5.27062 45.5878 6.37474 44.6237 6.5414 43.9173L6.6039 43.6405L9.33295 43.6118L12.062 43.5832L12.687 43.3064C13.489 42.9436 14.2807 42.2181 14.6765 41.4831L14.9786 40.9104L15.0306 35.1829C15.0931 28.835 15.0619 29.0737 15.791 28.3673C16.4681 27.7182 16.791 27.6514 19.3846 27.6132L21.697 27.575V30.1332C21.697 32.6724 21.697 32.682 21.9574 33.0829C22.2283 33.5124 23.0303 34.0756 23.749 34.3334L24.1969 34.4861V39.4403V44.3946H22.947H21.697V45.1582V45.9219H23.572C25.3115 45.9219 25.4573 45.9123 25.6552 45.731C25.8635 45.5401 25.8635 45.416 25.8635 40.2422C25.8635 37.3307 25.8948 34.9443 25.9469 34.9443C25.9885 34.9443 26.4885 35.0111 27.0614 35.0875C27.6343 35.1638 28.353 35.2307 28.6551 35.2307H29.1967V39.2399C29.1967 43.125 29.2071 43.2586 29.4051 43.44C29.603 43.6214 29.7488 43.6309 33.6132 43.6309H37.6131L37.686 43.9077C37.8526 44.6237 38.9568 45.5878 39.8734 45.8264C40.5504 45.9982 41.8421 45.9123 42.4045 45.6451C43.0399 45.3491 43.6545 44.7478 43.9566 44.1368C44.3107 43.4304 44.3315 42.3613 43.9982 41.674C43.4357 40.519 42.4879 39.8985 41.1546 39.8317C40.1755 39.7744 39.5713 39.9176 38.9255 40.3376C38.3839 40.6908 37.7797 41.4163 37.686 41.8268L37.6131 42.1036H34.2382H30.8633V38.6671V35.2307H31.4154C32.1029 35.2307 33.9049 34.992 34.7486 34.8011C36.4673 34.3906 37.6547 33.7893 38.1026 33.0924C38.3318 32.7297 38.363 32.5769 38.363 31.6701V30.6487H39.5505C40.1963 30.6487 40.8838 30.6964 41.0713 30.7537C41.665 30.9446 41.6962 31.126 41.6962 34.7056C41.6962 37.7794 41.7066 37.913 41.9045 38.0944C42.1025 38.2757 42.2483 38.2853 44.4044 38.2853H46.696V37.5216V36.758H45.0294H43.3628V33.7988C43.3628 30.5246 43.342 30.4196 42.7066 29.7991C42.1025 29.2169 41.7379 29.1214 39.9567 29.1214H38.363V26.0668V23.0121H40.9983C43.2899 23.0121 43.7482 22.9835 44.4461 22.8212C47.0293 22.2198 49.1647 20.263 49.8209 17.8956C50.1021 16.8933 50.1021 15.3851 49.8209 14.3828C49.1647 12.0154 47.0293 10.0586 44.4461 9.45719C43.842 9.314 43.2899 9.26627 42.2691 9.26627H40.8942L40.7171 8.50262C40.1442 6.04936 37.9464 3.9684 35.2798 3.34792C33.3007 2.88018 30.655 3.27156 29.2488 4.23568C29.0613 4.36932 28.9988 4.33113 28.3322 3.67248C26.551 1.92561 24.1136 0.703754 21.4783 0.24556C20.2492 0.035553 17.8534 0.0641899 16.5931 0.302834ZM22.0512 2.0497C25.676 3.05201 28.3947 5.46708 29.4571 8.61716C29.6134 9.08491 29.78 9.45719 29.8321 9.45719C29.8842 9.45719 30.2696 9.39037 30.7071 9.29491C31.4675 9.14218 31.4779 9.13263 31.4154 8.89399C31.2383 8.2067 30.8217 7.18531 30.4467 6.49801L30.03 5.73436L30.4675 5.47662C31.5716 4.83706 33.4778 4.59841 34.8111 4.92297C36.1235 5.23798 37.3214 6.01118 38.0818 7.03257C38.7588 7.93942 39.0088 8.63626 39.0713 9.73402C39.1442 11.0322 38.863 11.9868 38.1443 12.97C37.9776 13.1991 37.8422 13.3996 37.863 13.4091C37.8839 13.4282 38.1651 13.6287 38.4984 13.8769C38.8422 14.1251 39.1547 14.3255 39.1963 14.3255C39.5296 14.3255 40.4775 12.5882 40.7275 11.5191L40.9046 10.765L42.165 10.8318C44.0607 10.9272 45.0086 11.2136 46.1856 12.0727C46.8835 12.5786 47.7168 13.6764 47.9981 14.4687C48.2897 15.2705 48.2897 17.0079 47.9981 17.8097C47.5606 19.0411 46.3731 20.282 45.0711 20.8739C44.0399 21.3321 43.5711 21.3989 40.8942 21.4562L38.363 21.5134V20.7307V19.9575H39.8213C41.8108 19.9575 41.6962 20.0816 41.6962 17.8574V16.1392H42.1129H42.5295V15.3755V14.6119H41.4879C39.988 14.6119 40.0296 14.5451 40.0296 16.7119V18.4302H39.1963C38.363 18.4302 38.363 18.4302 38.363 18.1724C38.363 17.4851 37.3214 16.5974 36.009 16.1678C34.7278 15.7383 32.6237 15.3851 31.4154 15.3755H30.8633V14.3255C30.8633 13.1418 30.7383 12.76 30.2071 12.235C29.5509 11.605 29.3321 11.5573 26.5718 11.5573H24.1136L24.0407 11.2804C23.874 10.5645 22.7699 9.60038 21.8533 9.36173C21.0825 9.16127 19.8638 9.27582 19.2076 9.60038C18.1243 10.1445 17.4993 11.1468 17.4993 12.3209C17.4993 13.495 18.1243 14.4973 19.2076 15.0414C19.8638 15.366 21.0825 15.4805 21.8533 15.2801C22.7699 15.0414 23.874 14.0773 24.0407 13.3614L24.1136 13.0846H26.1656C27.4364 13.0846 28.3634 13.1227 28.5718 13.1896C29.0197 13.3328 29.1967 13.7528 29.1967 14.6405V15.3469L28.1655 15.4042C25.1969 15.5855 22.6345 16.4542 21.9574 17.5138C21.7075 17.9052 21.697 17.9815 21.697 19.7093V21.4944L14.1765 21.4562C5.98934 21.418 6.23933 21.4371 4.98938 20.8739C3.68735 20.282 2.4999 19.0411 2.06242 17.8097C1.77076 17.0079 1.77076 15.2705 2.06242 14.4687C2.34365 13.6764 3.17695 12.5786 3.87484 12.0727C4.9998 11.2518 6.156 10.8795 7.57261 10.8795C10.0933 10.889 12.3537 12.4832 13.0932 14.7933C13.187 15.0796 13.2599 15.4996 13.2599 15.7287V16.1392H14.1453H15.0306V15.6333C15.0202 13.9914 13.8744 11.9582 12.2703 10.765C11.5308 10.2208 10.2183 9.61947 9.38504 9.4381C8.67673 9.29491 8.66632 9.27582 9.05172 8.29261C10.1767 5.43844 12.562 3.26201 15.6556 2.25971C17.0618 1.80151 17.6555 1.72515 19.4575 1.76333C20.895 1.79197 21.2491 1.83015 22.0512 2.0497ZM21.6762 11.08C23.0303 11.8341 22.447 13.7528 20.8637 13.7528C19.9784 13.7528 19.3013 13.1323 19.3013 12.3209C19.3013 11.8054 19.5825 11.3472 20.0513 11.08C20.2596 10.9654 20.5825 10.889 20.8637 10.889C21.145 10.889 21.4679 10.9654 21.6762 11.08ZM32.8841 17.151C34.4986 17.3611 36.1027 17.867 36.4777 18.2774C36.5923 18.4015 36.5923 18.4588 36.4777 18.5829C36.1027 18.9934 34.2694 19.5566 32.582 19.7666C32.1237 19.8239 30.9779 19.8716 30.03 19.8716C29.0822 19.8716 27.9364 19.8239 27.4781 19.7666C25.7906 19.5566 23.9574 18.9934 23.5824 18.5829C23.3949 18.3824 23.5615 18.2011 24.2178 17.8956C26.0094 17.0651 29.7488 16.7406 32.8841 17.151ZM24.3011 20.7307C26.0614 21.3034 27.5718 21.5039 30.03 21.5039C32.7383 21.5039 34.5194 21.2271 36.5194 20.4825C36.686 20.4157 36.6964 20.5111 36.6964 21.6948C36.6964 22.9071 36.686 22.993 36.4673 23.1744C36.0819 23.4894 35.4048 23.7662 34.3736 24.0144C32.9778 24.3485 31.9675 24.4535 30.03 24.4535C28.0926 24.4535 27.0822 24.3485 25.6865 24.0144C24.6553 23.7662 23.9782 23.4894 23.6032 23.1744C23.3741 22.993 23.3636 22.9071 23.3636 21.6948C23.3636 20.5111 23.3741 20.4157 23.5511 20.4825C23.6449 20.5207 23.9886 20.6352 24.3011 20.7307ZM24.3011 25.3126C26.0614 25.8854 27.5718 26.0859 30.03 26.0859C32.7383 26.0859 34.5194 25.809 36.5194 25.0645C36.686 24.9976 36.6964 25.0931 36.6964 26.2768C36.6964 27.4891 36.686 27.575 36.4673 27.7564C36.0819 28.0714 35.4048 28.3482 34.3736 28.5964C32.9778 28.9305 31.9675 29.0355 30.03 29.0355C28.0926 29.0355 27.0822 28.9305 25.6865 28.5964C24.6553 28.3482 23.9782 28.0714 23.6032 27.7564C23.3741 27.575 23.3636 27.4891 23.3636 26.2768C23.3636 25.0931 23.3741 24.9976 23.5511 25.0645C23.6449 25.1026 23.9886 25.2172 24.3011 25.3126ZM24.3011 29.8946C26.0614 30.4673 27.5718 30.6678 30.03 30.6678C32.7383 30.6678 34.5194 30.391 36.5194 29.6464C36.686 29.5796 36.6964 29.675 36.6964 30.8587C36.6964 32.071 36.686 32.1569 36.4673 32.3383C36.0819 32.6533 35.4048 32.9301 34.3736 33.1783C32.9778 33.5124 31.9675 33.6174 30.03 33.6174C28.0926 33.6174 27.0822 33.5124 25.6865 33.1783C24.6553 32.9301 23.9782 32.6533 23.6032 32.3383C23.3741 32.1569 23.3636 32.071 23.3636 30.8587C23.3636 29.675 23.3741 29.5796 23.5511 29.6464C23.6449 29.6846 23.9886 29.7991 24.3011 29.8946ZM4.17691 41.6263C4.89563 42.0272 5.15604 42.9532 4.71856 43.6118C3.89568 44.8528 1.80201 44.3182 1.80201 42.8672C1.80201 41.7599 3.14571 41.0536 4.17691 41.6263ZM41.6754 41.6263C43.0295 42.3804 42.4462 44.2991 40.8629 44.2991C39.2797 44.2991 38.6963 42.3804 40.0505 41.6263C40.4984 41.3781 41.2275 41.3781 41.6754 41.6263Z" fill="#FF3E54"/>
</svg>
