<svg width="12" height="22" viewBox="0 0 12 22" fill="none" xmlns="http://www.w3.org/2000/svg">
<path fill-rule="evenodd" clip-rule="evenodd" d="M6 2C3.79086 2 2 3.79086 2 6V16C2 18.2091 3.79086 20 6 20C8.20914 20 10 18.2091 10 16V6C10 3.79086 8.20914 2 6 2ZM0 6C0 2.68629 2.68629 0 6 0C9.31371 0 12 2.68629 12 6V16C12 19.3137 9.31371 22 6 22C2.68629 22 0 19.3137 0 16V6ZM6 5.00018C6.55228 5.00018 7 5.4479 7 6.00018V6.20018C7 6.75247 6.55228 7.20018 6 7.20018C5.44772 7.20018 5 6.75247 5 6.20018V6.00018C5 5.4479 5.44772 5.00018 6 5.00018ZM6 9.90009C6.55228 9.90009 7 10.3478 7 10.9001V11.1001C7 11.6524 6.55228 12.1001 6 12.1001C5.44772 12.1001 5 11.6524 5 11.1001V10.9001C5 10.3478 5.44772 9.90009 6 9.90009ZM6 14.7998C6.55228 14.7998 7 15.2475 7 15.7998V15.9998C7 16.5521 6.55228 16.9998 6 16.9998C5.44772 16.9998 5 16.5521 5 15.9998V15.7998C5 15.2475 5.44772 14.7998 6 14.7998Z" fill="#FF3E54"/>
</svg>