<svg width="50" height="47" viewBox="0 0 50 47" fill="none" xmlns="http://www.w3.org/2000/svg">
<path d="M7.73578 0.319069C7.07241 0.496773 6.43967 0.983112 6.11309 1.56298L5.80692 2.12414L5.7763 4.25656L5.73548 6.38897H4.23525C2.06146 6.38897 1.37768 6.6602 0.785757 7.77317L0.5 8.30628V24.1591V40.0119L0.734729 40.4515C0.867402 40.6853 1.17357 41.0501 1.41851 41.2652C2.23495 41.9573 1.82673 41.9292 11.8997 41.9292H20.8602V43.7998C20.8602 45.5487 20.8704 45.6797 21.0643 45.8574C21.2684 46.0444 21.4011 46.0444 27.8 46.0444C34.1989 46.0444 34.3316 46.0444 34.5357 45.8574C34.7296 45.6797 34.7398 45.5487 34.7398 43.7998V41.9292H38.3934C42.588 41.9292 42.8125 41.9012 43.5881 41.2465C44.4045 40.5637 44.476 40.3299 44.5168 37.8889L44.5576 35.7752L46.2109 35.7378C47.6703 35.7097 47.9051 35.6816 48.2725 35.5039C48.844 35.2234 49.3237 34.7744 49.5788 34.26L49.7931 33.8392V17.977V2.12414L49.4869 1.56298C49.1502 0.964405 48.5174 0.487419 47.8234 0.309719C47.3438 0.188133 8.19503 0.197487 7.73578 0.319069ZM47.5989 1.66586C47.752 1.74068 47.9867 1.91838 48.099 2.04932C48.3031 2.29249 48.3133 2.40472 48.3133 5.13571V7.97894H35.7706H23.2279L21.6154 6.4825C20.4112 5.36018 19.9111 4.95801 19.6457 4.89254C19.1559 4.77096 12.9611 4.77096 12.4712 4.89254C12.2671 4.94866 11.9813 5.11701 11.8384 5.276C11.5833 5.54723 11.5731 5.6127 11.5731 6.77243V7.97894H9.36868H7.17447L7.20509 5.19183C7.2357 2.10544 7.24591 2.09608 7.92969 1.71262C8.24606 1.52557 8.60326 1.52557 27.7796 1.52557C44.8128 1.52557 47.3438 1.54427 47.5989 1.66586ZM20.7275 7.56741C21.5542 8.37175 22.3604 9.08255 22.5135 9.15738C22.7482 9.26961 24.7996 9.28831 35.5563 9.28831H48.3133V21.4842V33.6708L48.099 33.9233C47.6295 34.4658 47.8745 34.4471 40.7918 34.4377H34.2806L34.8215 34.2133C35.2807 34.0169 35.393 33.9233 35.5767 33.5399C35.7502 33.1845 35.7706 33.0348 35.689 32.7636C35.6379 32.5765 34.0152 29.8268 32.0864 26.6469C28.8002 21.2224 28.5654 20.8576 28.2184 20.7267C27.9021 20.6051 27.8 20.5957 27.4428 20.708C27.0448 20.8389 26.9938 20.9044 25.269 23.7382C20.1764 32.0996 19.8907 32.5952 19.9009 33.0442C19.9111 33.6053 20.1764 33.9607 20.8092 34.2226L21.3195 34.4377H14.7879C8.491 34.4471 8.24606 34.4377 7.92969 34.26C7.74599 34.1665 7.52146 33.9701 7.41941 33.8205C7.24591 33.5773 7.2357 32.9507 7.20509 21.4281L7.18468 9.28831H9.67485H12.165L12.4814 9.04514C12.8896 8.7365 13.0019 8.32499 13.0019 7.10913V6.10839H16.1044H19.2069L20.7275 7.56741ZM5.7763 20.7734L5.80692 33.8485L6.11309 34.4097C6.44987 35.0082 7.08262 35.4852 7.7766 35.6629C8.02154 35.719 10.8179 35.7565 15.5227 35.7565C22.8911 35.7565 22.8911 35.7565 23.0034 35.9529C23.0748 36.0557 23.1463 36.3737 23.1769 36.6543L23.2381 37.1594H22.738C22.0236 37.1594 21.5542 37.309 21.2072 37.6364C20.9112 37.9169 20.9112 37.9169 20.8806 39.2731L20.85 40.6199H11.9711C2.33701 40.6199 2.65338 40.6386 2.20434 40.1055L1.97981 39.8436V24.1872C1.97981 9.61566 1.99002 8.50269 2.15331 8.25016C2.44927 7.79188 2.79626 7.69835 4.34752 7.69835H5.75589L5.7763 20.7734ZM27.0856 24.9821V26.357L26.708 26.544C25.9732 26.9088 25.514 27.9282 25.7487 28.7139C26.0344 29.6866 26.7897 30.1729 27.9123 30.1261C28.4532 30.0981 28.6777 30.042 28.9941 29.8362C30.229 29.0506 30.1983 27.3016 28.9328 26.5908L28.5246 26.357L28.5144 24.9634C28.5144 24.1965 28.5348 23.5886 28.5552 23.6073C28.6165 23.6634 34.2296 32.9507 34.2296 32.9881C34.2296 33.0161 34.0561 33.0816 33.8519 33.1471C32.3415 33.596 31.0964 35.0644 30.9842 36.514L30.9331 37.1594H27.8H24.6669L24.6159 36.5047C24.5036 35.1579 23.4626 33.8298 22.0338 33.2125L21.3603 32.9319L21.5542 32.6327C21.6562 32.4737 22.9319 30.3787 24.3811 27.9657C25.8303 25.562 27.0346 23.5979 27.055 23.5979C27.0754 23.5979 27.0856 24.2152 27.0856 24.9821ZM28.3001 27.8628C28.4226 28.0031 28.5144 28.1621 28.5144 28.2275C28.5144 28.4707 28.096 28.8355 27.8102 28.8355C27.2081 28.8355 26.9223 28.3024 27.2897 27.8721C27.5857 27.5354 28.0143 27.5354 28.3001 27.8628ZM43.088 37.7579C43.037 40.7789 43.3125 40.6199 38.3424 40.6199H34.75L34.7194 39.2731C34.6888 37.9824 34.6786 37.9076 34.4337 37.6644C34.0765 37.3184 33.6172 37.1594 32.9436 37.1594H32.3619L32.4232 36.6543C32.5354 35.6629 31.9639 35.7565 37.9138 35.7565H43.1288L43.088 37.7579ZM33.311 41.6019V44.7351H27.8H22.289V41.6019V38.4687H27.8H33.311V41.6019Z" fill="#FF3E54"/>
<path d="M35.0971 3.17163C34.3317 3.53638 33.9847 4.11625 34.0459 4.91123C34.1174 5.85585 34.8828 6.48248 35.9442 6.48248C36.9035 6.48248 37.5465 6.03355 37.8016 5.19181C38.0159 4.42489 37.5975 3.54573 36.8525 3.21839C36.3218 2.98457 35.536 2.96587 35.0971 3.17163ZM36.332 4.56518C36.6076 4.94864 35.934 5.38822 35.5768 5.06087C35.4033 4.90188 35.4237 4.64935 35.6176 4.47165C35.8319 4.27525 36.1585 4.32201 36.332 4.56518Z" fill="#FF3E54"/>
<path d="M39.4243 3.28386C38.2098 3.99467 38.2813 5.70621 39.5365 6.29543C39.9754 6.50119 40.7816 6.5386 41.2409 6.37961C42.19 6.05226 42.6493 4.90188 42.2002 3.99467C41.894 3.38674 41.3736 3.0781 40.5673 3.04069C39.9652 3.01264 39.8427 3.04069 39.4243 3.28386ZM40.802 4.48101C41.1388 4.7803 40.9347 5.17311 40.4346 5.17311C40.0468 5.17311 39.8733 4.86447 40.0979 4.55583C40.2816 4.29396 40.5673 4.2659 40.802 4.48101Z" fill="#FF3E54"/>
<path d="M44.18 3.15292C43.5166 3.42415 43.1084 4.03207 43.1084 4.75223C43.1084 5.26663 43.2513 5.61268 43.5983 5.94938C44.0065 6.35155 44.3637 6.48248 45.0066 6.48248C46.1395 6.48248 46.8845 5.79974 46.8845 4.76159C46.8845 4.47165 46.8232 4.11625 46.7416 3.97596C46.5477 3.63926 46.0782 3.24645 45.7312 3.12486C45.3332 2.98457 44.5474 3.00328 44.18 3.15292ZM45.3332 4.44359C45.4047 4.50906 45.4557 4.64 45.4557 4.75223C45.4557 4.86447 45.4047 4.9954 45.3332 5.06087C45.2618 5.12634 45.1189 5.1731 44.9964 5.1731C44.874 5.1731 44.7311 5.12634 44.6597 5.06087C44.5882 4.9954 44.5372 4.86447 44.5372 4.75223C44.5372 4.64 44.5882 4.50906 44.6597 4.44359C44.7311 4.37812 44.874 4.33136 44.9964 4.33136C45.1189 4.33136 45.2618 4.37812 45.3332 4.44359Z" fill="#FF3E54"/>
<path d="M25.5753 13.8712C25.1466 14.1143 24.9425 14.5539 24.9425 15.2741V15.8352H20.35H15.7677L15.635 15.4331C15.4513 14.8719 14.6247 14.133 13.9919 13.974C12.4305 13.5719 10.8996 14.3201 10.5526 15.6575C10.0525 17.5748 11.8793 19.1554 13.9613 18.6036C14.6145 18.4259 15.237 17.9676 15.4921 17.4719L15.6656 17.1446H18.6967H21.7176L20.9623 17.5655C18.2272 19.118 16.0841 21.6245 15.186 24.3181L14.9308 25.0944H14.3083C13.4612 25.0944 13.0224 25.3002 12.7774 25.8146C12.6039 26.1793 12.5835 26.4038 12.6142 27.8534C12.6448 29.3218 12.6652 29.4995 12.8591 29.7427C13.2775 30.2571 13.5939 30.3319 15.5023 30.3319C18.2374 30.3319 18.3089 30.2571 18.3089 27.6664C18.3089 26.1419 18.2885 25.9548 18.1048 25.6743C17.87 25.3189 17.37 25.0944 16.8291 25.0944C16.4821 25.0944 16.4719 25.085 16.5331 24.8325C16.7474 24.0375 17.5945 22.4663 18.2987 21.5965C19.3192 20.3152 20.7276 19.1835 22.2176 18.454C22.9728 18.0799 24.5139 17.5187 24.7792 17.5187C24.8609 17.5187 24.9629 17.6964 25.0344 17.9302C25.1058 18.1921 25.2589 18.4259 25.463 18.5849L25.7794 18.8281H27.7695C29.4636 18.8281 29.8004 18.8 30.0555 18.6691C30.3821 18.4914 30.6577 18.0331 30.6577 17.6777V17.4439L31.1986 17.5842C32.015 17.7899 34.097 18.7626 34.842 19.2864C36.628 20.5209 38.0976 22.326 38.8732 24.2152C39.1998 25.0196 39.1998 25.0944 38.8222 25.0944C38.3323 25.0944 37.822 25.3376 37.5975 25.6743C37.4138 25.9548 37.3934 26.1419 37.3934 27.7132C37.3934 30.2851 37.4444 30.3319 40.2203 30.3319C42.1084 30.3319 42.435 30.2571 42.8432 29.7427C43.0371 29.5089 43.0575 29.3218 43.0881 27.9563C43.1289 26.2354 43.0473 25.8146 42.5982 25.4217C42.3125 25.1692 42.2002 25.1412 41.496 25.1131L40.7102 25.0757L40.4244 24.2714C39.4447 21.4562 37.2811 18.9684 34.5562 17.5094L33.8724 17.1446H36.9545C39.9958 17.1446 40.0366 17.1446 40.0979 17.341C40.2101 17.6496 40.8633 18.2576 41.3021 18.4727C42.2002 18.8842 43.4861 18.7533 44.272 18.164C45.364 17.3317 45.4558 15.5546 44.4557 14.5913C43.7515 13.9086 42.3839 13.6654 41.394 14.0582C40.751 14.3107 40.1387 14.9187 39.955 15.4518L39.8325 15.8352H35.2502H30.6577V15.2741C30.6577 14.5539 30.4536 14.1143 30.0249 13.8712C29.7188 13.7028 29.5146 13.6841 27.8001 13.6841C26.0856 13.6841 25.8814 13.7028 25.5753 13.8712ZM29.2289 16.3029V17.6122H27.8001H26.3713V16.3029V14.9935H27.8001H29.2289V16.3029ZM13.9307 15.4424C14.3287 15.7697 14.441 16.3964 14.1756 16.8547C14.0021 17.1727 13.5122 17.4252 13.0836 17.4252C12.5427 17.4252 11.8793 16.8079 11.8793 16.3029C11.8793 16.1906 11.9508 15.9662 12.0324 15.7978C12.3692 15.1525 13.349 14.9654 13.9307 15.4424ZM43.0983 15.3208C43.2616 15.3956 43.4657 15.6108 43.5678 15.7978C44.1801 16.9856 42.5268 17.9863 41.5879 16.995C41.3328 16.7331 41.2715 16.5834 41.2715 16.2467C41.2715 15.882 41.3225 15.7697 41.6185 15.4985C41.9043 15.2366 42.0471 15.1805 42.3839 15.1805C42.6187 15.1805 42.9452 15.246 43.0983 15.3208ZM16.8801 27.7132V29.0225H15.4513H14.0225V27.7132V26.4038H15.4513H16.8801V27.7132ZM41.6083 27.311C41.6491 27.816 41.6797 28.4053 41.6797 28.6204V29.0225H40.251H38.8222V28.7139C38.8222 28.5362 38.7916 27.947 38.7507 27.4045L38.6895 26.4038H40.1183H41.5471L41.6083 27.311Z" fill="#FF3E54"/>
</svg>