<svg width="50" height="47" viewBox="0 0 50 47" fill="none" xmlns="http://www.w3.org/2000/svg">
<path d="M1.02539 1.08029C0.595703 1.28613 0.390625 1.47406 0.185547 1.84099C0.00976562 2.15422 0 2.44061 0 6.96905C0 11.4975 0.00976562 11.7839 0.185547 12.0971C0.400391 12.473 0.605469 12.6609 1.04492 12.8668C1.30859 12.9831 1.72852 13.01 3.61328 13.01H5.85938V17.9232V22.8454L6.11328 23.0244C6.36719 23.2124 6.46484 23.2124 11.2891 23.2124H16.2109V24.5995V25.9867H15.7227C15.3516 25.9867 15.2344 25.9509 15.2344 25.8525C15.2344 25.6108 14.3359 24.868 13.9062 24.7517C13.0176 24.51 12.2559 24.6801 11.6211 25.2707C10.7031 26.103 10.7031 27.3023 11.6211 28.1346C12.2559 28.7252 13.0176 28.8953 13.9062 28.6537C14.3359 28.5373 15.2344 27.7945 15.2344 27.5529C15.2344 27.4544 15.3418 27.4186 15.7129 27.4186H16.1914L16.2305 28.9221C16.2598 30.4256 16.2598 30.4346 16.5527 30.8731C16.7383 31.1416 17.0312 31.4101 17.3242 31.5801L17.8027 31.8486L19.7949 31.8755L21.7773 31.9023V35.8401V39.7689H17.4805H13.1836V37.8448C13.1836 36.1265 13.1641 35.8759 12.998 35.5806C12.7832 35.2047 12.5781 35.0167 12.1387 34.8109C11.8652 34.6856 11.2207 34.6677 6.5918 34.6677C1.96289 34.6677 1.31836 34.6856 1.04492 34.8109C0.605469 35.0167 0.400391 35.2047 0.185547 35.5806C0.00976562 35.8938 0 36.1802 0 40.7086C0 45.237 0.00976562 45.5234 0.185547 45.8367C0.400391 46.2125 0.605469 46.4005 1.04492 46.6063C1.31836 46.7316 1.96289 46.7495 6.5918 46.7495C11.2207 46.7495 11.8652 46.7316 12.1387 46.6063C12.5781 46.4005 12.7832 46.2125 12.998 45.8367C13.1641 45.5413 13.1836 45.2907 13.1836 43.3487V41.2008H18.0176H22.8613L23.0957 40.9771L23.3398 40.7623V36.3234V31.8934H25.293H27.2461V33.37C27.2461 34.6409 27.2266 34.8467 27.0996 34.8467C26.8359 34.8467 26.0254 35.67 25.8984 36.0638C25.6348 36.8782 25.8203 37.5763 26.4648 38.158C27.373 38.9993 28.6816 38.9993 29.5898 38.158C30.2344 37.5763 30.4199 36.8782 30.1562 36.0638C30.0293 35.67 29.2188 34.8467 28.9551 34.8467C28.8281 34.8467 28.8086 34.6409 28.8086 33.379V31.9113L30.498 31.8755C32.1191 31.8486 32.1973 31.8397 32.627 31.607C33.1152 31.3474 33.5449 30.8463 33.6914 30.363C33.75 30.193 33.7891 28.9579 33.7891 27.6245V25.1813H38.2324H42.6758V29.9245V34.6677H40.4297C38.4082 34.6677 38.1348 34.6856 37.8125 34.8377C36.9727 35.2315 36.8164 35.5985 36.8164 37.2094C36.8164 38.4981 36.8164 38.507 37.0703 38.686C37.4023 38.9187 37.6953 38.9277 38.0176 38.695C38.252 38.5249 38.2617 38.4712 38.3008 37.3973C38.3203 36.6366 38.3691 36.2518 38.457 36.1712C38.6426 36.0012 48.1738 36.0012 48.3594 36.1712C48.5449 36.3413 48.5449 45.076 48.3594 45.246C48.1738 45.416 38.6426 45.416 38.457 45.246C38.3594 45.1565 38.3203 44.5479 38.2812 42.8475C38.2324 40.7176 38.2227 40.5475 38.0469 40.4312C37.7637 40.2432 37.2461 40.2701 37.0117 40.4849C36.8262 40.6549 36.8164 40.7802 36.8164 43.0802C36.8164 45.2818 36.8359 45.5324 37.002 45.8367C37.2168 46.2125 37.4219 46.4005 37.8613 46.6063C38.1348 46.7316 38.7793 46.7495 43.4082 46.7495C48.3496 46.7495 48.6621 46.7406 49.0039 46.5795C49.4141 46.3826 49.6191 46.1946 49.8438 45.7919C49.9805 45.5413 50 44.9507 50 40.7086C50 36.1802 49.9902 35.8938 49.8145 35.5806C49.5996 35.2047 49.3945 35.0167 48.9551 34.8109C48.6914 34.6946 48.2812 34.6677 46.4453 34.6677H44.248L44.2188 29.4323L44.1895 24.2058L43.9648 23.9999L43.7402 23.7941L38.7695 23.7672L33.7891 23.7404V22.6754V21.6015H35.4785L37.1582 21.6104L37.4121 21.9952C37.5781 22.2369 37.8613 22.4875 38.1445 22.6396C38.5449 22.8633 38.7305 22.8991 39.3066 22.8991C40.1367 22.8991 40.7227 22.6306 41.1719 22.04C41.4355 21.691 41.4551 21.6015 41.4551 20.8855C41.4551 20.1695 41.4355 20.08 41.1719 19.731C40.7227 19.1403 40.1367 18.8719 39.3066 18.8719C38.7305 18.8719 38.5449 18.9077 38.1445 19.1314C37.8613 19.2835 37.5781 19.5341 37.4121 19.7758L37.1582 20.1606L35.4785 20.1695H33.8086L33.7695 18.7108C33.7402 17.261 33.7402 17.2431 33.4473 16.8045C33.2617 16.536 32.9688 16.2676 32.6758 16.0975C32.1973 15.829 32.1875 15.829 30.498 15.8022L28.8086 15.7664V11.7033V7.64026H32.8125H36.8164V9.69864C36.8164 11.4259 36.8457 11.8107 36.9727 12.0524C37.1973 12.4551 37.4023 12.643 37.8125 12.8399C38.1543 13.001 38.4668 13.01 43.4082 13.01C48.3496 13.01 48.6621 13.001 49.0039 12.8399C49.4141 12.643 49.6191 12.4551 49.8438 12.0524C49.9805 11.8018 50 11.2111 50 6.96905C50 2.72699 49.9805 2.13633 49.8438 1.88574C49.6191 1.48301 49.4141 1.29507 49.0039 1.09819C48.6621 0.937096 48.3496 0.928146 43.4082 0.928146C38.4668 0.928146 38.1543 0.937096 37.8125 1.09819C37.4023 1.29507 37.1973 1.48301 36.9727 1.88574C36.8457 2.12738 36.8164 2.5122 36.8164 4.23946V6.29784H32.2266H27.6465L27.4414 6.49472C27.2461 6.68266 27.2461 6.78111 27.2461 11.238V15.7843H25.293H23.3398V14.4866C23.3398 13.3769 23.3594 13.1889 23.4863 13.1889C23.75 13.1889 24.5605 12.3656 24.6875 11.9718C24.9512 11.1574 24.7656 10.4593 24.1211 9.87763C23.2129 9.03638 21.9043 9.03638 20.9961 9.87763C20.3516 10.4593 20.166 11.1574 20.4297 11.9718C20.5566 12.3656 21.3672 13.1889 21.6309 13.1889C21.7578 13.1889 21.7773 13.3769 21.7773 14.4777V15.7753L19.7949 15.8022L17.8027 15.829L17.3242 16.0975C17.0312 16.2676 16.7383 16.536 16.5527 16.8045L16.2598 17.2431L16.2305 19.5162L16.2012 21.7804H11.7578H7.32422V17.3952V13.01H9.57031C11.5918 13.01 11.8652 12.9921 12.1875 12.8399C13.0273 12.4461 13.1836 12.0792 13.1836 10.4772C13.1836 9.25117 13.1738 9.18852 12.959 9.00058C12.6953 8.77684 12.2461 8.75 11.9629 8.94688C11.7871 9.06323 11.7578 9.21537 11.7188 10.2356C11.6895 11.0142 11.6309 11.4259 11.543 11.5064C11.3574 11.6765 1.82617 11.6765 1.64062 11.5064C1.45508 11.3364 1.45508 2.6017 1.64062 2.43166C1.82617 2.26162 11.3574 2.26162 11.543 2.43166C11.6406 2.52115 11.6797 3.09392 11.6992 4.77642L11.7285 7.00484L11.9824 7.19279C12.3047 7.42547 12.5977 7.41652 12.9297 7.18383L13.1836 7.00484V4.58849C13.1836 2.53905 13.1641 2.12738 13.0273 1.88574C12.8027 1.48301 12.5977 1.29507 12.1875 1.09819C11.8457 0.937096 11.5332 0.928146 6.57227 0.928146C1.97266 0.937096 1.2793 0.954994 1.02539 1.08029ZM48.3594 2.43166C48.5449 2.6017 48.5449 11.3364 48.3594 11.5064C48.1738 11.6765 38.6426 11.6765 38.457 11.5064C38.3594 11.4169 38.3203 10.4951 38.3008 7.21069C38.291 4.91067 38.3008 2.89703 38.3301 2.73594C38.3691 2.548 38.4668 2.41376 38.6035 2.36006C38.7207 2.31532 40.918 2.28847 43.5254 2.29742C47.2363 2.31532 48.2617 2.34216 48.3594 2.43166ZM22.998 10.9068C23.1348 11.0232 23.2422 11.2022 23.2422 11.3095C23.2422 11.5512 22.8223 11.936 22.5586 11.936C22.2949 11.936 21.875 11.5512 21.875 11.3095C21.875 11.0679 22.2949 10.6831 22.5586 10.6831C22.6758 10.6831 22.8711 10.7815 22.998 10.9068ZM31.7676 17.3147C31.9043 17.3684 32.0605 17.5115 32.1191 17.6368C32.2754 17.9411 32.2754 29.7365 32.1191 30.0408C32.0605 30.1661 31.9043 30.3093 31.7676 30.363C31.4355 30.5062 18.5645 30.5062 18.2324 30.363C18.0957 30.3093 17.9395 30.1661 17.8809 30.0408C17.7246 29.7365 17.7246 17.9411 17.8809 17.6279C17.9395 17.5115 18.0859 17.3684 18.2031 17.3236C18.5059 17.1894 31.4551 17.1804 31.7676 17.3147ZM39.7266 20.438C40.1465 20.805 39.8535 21.512 39.2871 21.512C38.9746 21.512 38.6719 21.2077 38.6719 20.8855C38.6719 20.3396 39.3066 20.08 39.7266 20.438ZM13.623 26.2999C13.7598 26.4163 13.8672 26.5953 13.8672 26.7027C13.8672 26.8011 13.7598 26.989 13.623 27.1054C13.4961 27.2307 13.3008 27.3291 13.1836 27.3291C13.0762 27.3291 12.8711 27.2307 12.7441 27.1054C12.6074 26.989 12.5 26.8011 12.5 26.7027C12.5 26.5953 12.6074 26.4163 12.7441 26.2999C12.8711 26.1746 13.0762 26.0762 13.1836 26.0762C13.3008 26.0762 13.4961 26.1746 13.623 26.2999ZM11.543 36.1712C11.7285 36.3413 11.7285 45.076 11.543 45.246C11.3574 45.416 1.82617 45.416 1.64062 45.246C1.54297 45.1565 1.50391 44.2347 1.48438 40.9502C1.46484 38.6502 1.48438 36.6366 1.51367 36.4755C1.55273 36.2876 1.65039 36.1533 1.78711 36.0996C1.9043 36.0549 4.10156 36.028 6.70898 36.037C10.4199 36.0549 11.4453 36.0817 11.543 36.1712ZM28.4668 36.3234C28.6035 36.4397 28.7109 36.6187 28.7109 36.7261C28.7109 36.9677 28.291 37.3526 28.0273 37.3526C27.7637 37.3526 27.3438 36.9677 27.3438 36.7261C27.3438 36.4845 27.7637 36.0996 28.0273 36.0996C28.1445 36.0996 28.3398 36.1981 28.4668 36.3234Z" fill="#FF3E54"/>
<path d="M40.0488 3.89039L39.7461 4.16783V6.96902V9.77021L40.0488 10.0476L40.3516 10.3251H43.4082H46.4648L46.7676 10.0476L47.0703 9.77021V6.96902V4.16783L46.7676 3.89039L46.4648 3.61296H43.4082H40.3516L40.0488 3.89039ZM45.6055 6.96902V8.98265H43.4082H41.2109V6.96902V4.95538H43.4082H45.6055V6.96902Z" fill="#FF3E54"/>
<path d="M19.707 18.6123C19.1309 18.8897 19.1406 18.845 19.1406 23.8567C19.1406 28.242 19.1504 28.4567 19.3262 28.7073C19.6973 29.2174 19.5606 29.1995 24.9805 29.2085C29.4531 29.2085 30.0293 29.1906 30.2734 29.0653C30.8789 28.7342 30.8594 28.8684 30.8594 23.8388C30.8594 18.8181 30.8692 18.8808 30.2734 18.6034C30.0684 18.5049 29.6875 18.4691 28.9063 18.4691C27.8906 18.4691 27.8125 18.4781 27.5879 18.6929C27.4317 18.8271 27.3438 19.015 27.3438 19.1851C27.3438 19.3551 27.4317 19.5431 27.5879 19.6773C27.793 19.8742 27.9102 19.901 28.5645 19.901H29.2969V23.8388V27.7766H25H20.7031V23.8388V19.901H22.9981H25.3027L25.5371 19.6773C25.6934 19.5431 25.7813 19.3551 25.7813 19.1851C25.7813 19.015 25.6934 18.8271 25.5371 18.6929L25.3027 18.4691H22.6367C20.4688 18.4781 19.9219 18.5049 19.707 18.6123Z" fill="#FF3E54"/>
<path d="M3.23242 37.63L2.92969 37.9075V40.7086V43.5098L3.23242 43.7873L3.53516 44.0647H6.5918H9.64844L9.95117 43.7873L10.2539 43.5098V40.7086V37.9075L9.95117 37.63L9.64844 37.3526H6.5918H3.53516L3.23242 37.63ZM8.78906 40.7086V42.7223H6.5918H4.39453V40.7086V38.695H6.5918H8.78906V40.7086Z" fill="#FF3E54"/>
<path d="M3.23242 3.89039L2.92969 4.16783V6.96902V9.77021L3.23242 10.0476L3.53516 10.3251H6.5918H9.64844L9.95117 10.0476L10.2539 9.77021V6.96902V4.16783L9.95117 3.89039L9.64844 3.61296H6.5918H3.53516L3.23242 3.89039ZM8.78906 6.96902V8.98265H6.5918H4.39453V6.96902V4.95538H6.5918H8.78906V6.96902Z" fill="#FF3E54"/>
<path d="M40.0488 37.63L39.7461 37.9075V40.7086V43.5098L40.0488 43.7873L40.3516 44.0647H43.4082H46.4648L46.7676 43.7873L47.0703 43.5098V40.7086V37.9075L46.7676 37.63L46.4648 37.3526H43.4082H40.3516L40.0488 37.63ZM45.6055 40.7086V42.7223H43.4082H41.2109V40.7086V38.695H43.4082H45.6055V40.7086Z" fill="#FF3E54"/>
</svg>