<svg xmlns="http://www.w3.org/2000/svg" width="61" height="58" fill="none" viewBox="0 0 61 58">
  <rect width="60" height="56.608" x=".5" y=".696" fill="#fff" rx="10"/>
  <mask id="a" width="42" height="38" x="9.5" y="9.696" fill="#000" maskUnits="userSpaceOnUse">
    <path fill="#fff" d="M9.5 9.696h42v38h-42z"/>
    <path d="M30.064 10.91c-.137.188-.157.537-.127 2.414.02 1.574.058 2.217.146 2.298.156.143.683.143.839 0 .088-.08.127-.724.146-2.298.03-2.458 0-2.628-.566-2.628-.195 0-.341.072-.438.215Zm-9.531 2.236c-.459.205-.361.491.81 2.368.604.966 1.16 1.824 1.238 1.905.225.241.664.205.859-.063.205-.286.244-.197-1.18-2.458-.713-1.109-1.19-1.788-1.308-1.815a.894.894 0 0 0-.419.063Zm19.49-.046c-.166.063-2.595 3.782-2.595 3.988 0 .053.069.188.157.295.185.241.634.26.838.036.371-.394 2.322-3.639 2.322-3.862 0-.349-.351-.572-.722-.456Zm-10.564 4.578c-2.81.241-5.492 1.743-7.092 3.96-.615.85-.956 1.511-1.297 2.557-.342 1.028-.43 3.004-.186 4.103.37 1.654 1.112 3.004 2.37 4.336 1.25 1.305 1.503 1.618 1.786 2.172.166.295.322.724.35.939.06.375.05.393-.282.5-.439.144-1.024.671-1.249 1.127-.263.536-.244 1.404.05 1.985.233.464.819.983 1.209 1.072.117.036.214.072.214.09 0 .009-.097.178-.214.366-.186.277-.225.474-.225 1.055 0 .626.04.769.273 1.144.293.456.937.94 1.347 1.02.224.035.273.098.322.464.146.993.975 1.985 2.058 2.477.536.232.673.259 1.61.259.907 0 1.092-.027 1.58-.242 1.063-.455 1.941-1.51 2.087-2.494.05-.366.098-.429.322-.465.41-.08 1.054-.563 1.346-1.019.234-.375.273-.518.273-1.144 0-.581-.038-.778-.214-1.055a3.54 3.54 0 0 1-.224-.366c0-.018.097-.054.224-.09.38-.09.966-.608 1.2-1.072.292-.581.312-1.449.048-1.985-.224-.456-.81-.983-1.248-1.126-.332-.108-.341-.126-.283-.501.117-.787.595-1.475 2.136-3.111 1.269-1.332 2-2.682 2.37-4.336.245-1.117.157-3.066-.194-4.148-1.18-3.62-4.341-6.06-8.38-6.472a19.256 19.256 0 0 0-1.112-.09c-.097.01-.536.045-.975.09Zm3.385 1.242c2.965.787 5.316 2.995 6.106 5.767.273.947.254 2.976-.039 3.915-.449 1.43-.985 2.289-2.312 3.674-1.434 1.502-1.795 2.092-2.136 3.469-.059.25-.068.25-.888.25a.83.83 0 0 1-.829-.829v-4.123c0-.474.384-.858.858-.858 1.093 0 1.766-.18 2.283-.608 1.356-1.118 1.063-3.174-.556-3.907-.293-.134-.595-.179-1.18-.179-.703 0-.84.027-1.259.268-.975.555-1.317 1.252-1.317 2.682 0 .42-.34.76-.76.76h-.345a1.061 1.061 0 0 1-1.06-1.01c-.068-1.386-.37-1.94-1.337-2.458-.39-.206-.556-.242-1.229-.242-.575 0-.878.045-1.17.179-1.62.733-1.912 2.79-.556 3.907.517.429 1.19.607 2.282.607.475 0 .859.385.859.859v4.123a.83.83 0 0 1-.83.83c-.819 0-.828 0-.877-.251-.312-1.305-.732-1.985-2.185-3.513-1.922-2.003-2.634-3.71-2.517-5.972.107-2.19 1.063-4.032 2.878-5.552 1.082-.92 2.555-1.627 3.97-1.913.995-.205 3.17-.134 4.146.125Zm-5.405 7.698c.664.295.82.608.82 1.68v.2a.702.702 0 0 1-.703.703c-.946 0-1.424-.134-1.804-.5-.517-.51-.546-1.207-.059-1.744.488-.527 1.073-.643 1.746-.34Zm7.541.053c.468.322.644.635.644 1.127 0 .34-.059.545-.225.76-.35.446-.731.58-1.746.625a.876.876 0 0 1-.907-.876c0-.769.03-.965.195-1.207.42-.617 1.444-.831 2.039-.429Zm-3.404 8.251a1.073 1.073 0 1 1-2.147 0v-3.664a1.073 1.073 0 0 1 2.147 0v3.664Zm3.98 2.325c.956.536.916 1.725-.078 2.208-.42.206-.43.206-4.976.206-4.545 0-4.555 0-4.974-.206-.995-.483-1.035-1.672-.079-2.208.313-.17.508-.179 5.053-.179 4.546 0 4.741.009 5.054.179Zm-1.278 3.549c.38.16.682.545.77.983.098.456-.263 1.046-.78 1.27-.39.178-.576.187-3.765.187-3.19 0-3.376-.009-3.766-.187-1.014-.447-1.034-1.797-.03-2.253.293-.125.762-.152 3.776-.152 3.024 0 3.492.018 3.795.152Zm-1.142 3.531c0 .241-.468 1.028-.78 1.305-.546.51-1.024.689-1.854.689-.829 0-1.307-.18-1.853-.689-.312-.277-.78-1.064-.78-1.305 0-.08.595-.107 2.634-.107 2.038 0 2.633.027 2.633.107ZM13.188 19.85c-.293.402-.108.546 2.107 1.717 1.15.608 2.136 1.108 2.185 1.108.058 0 .204-.062.322-.143.263-.17.282-.58.048-.769-.097-.071-1.024-.58-2.068-1.126-2.01-1.064-2.331-1.162-2.595-.787Zm31.976.814c-1.034.545-1.941 1.055-2.029 1.117-.224.17-.185.59.068.751.117.08.264.143.322.143.049 0 1.034-.5 2.185-1.108 2.215-1.171 2.4-1.314 2.107-1.717-.273-.384-.624-.277-2.653.814ZM10.73 28.62a.463.463 0 0 0 .01.805c.204.125.584.143 2.633.116 1.717-.018 2.42-.054 2.507-.134.156-.143.156-.626 0-.77-.088-.08-.8-.115-2.527-.133-2.077-.018-2.438-.01-2.624.116Zm34.541-.045c-.41.152-.39.751.03.903.127.045 1.258.08 2.497.08 2.517 0 2.702-.035 2.702-.536 0-.5-.176-.536-2.731-.527-1.259 0-2.38.036-2.498.08Zm-29.976 7.903c-2.215 1.171-2.4 1.314-2.107 1.716.263.376.585.277 2.594-.786 1.044-.546 1.97-1.055 2.068-1.127.234-.187.215-.599-.048-.768-.117-.08-.264-.143-.322-.143-.05 0-1.034.5-2.185 1.108Zm27.908-.965c-.253.16-.292.58-.068.75.088.063 1.015.573 2.068 1.127 2.039 1.081 2.351 1.18 2.614.804.293-.402.108-.545-2.107-1.716-1.15-.608-2.136-1.108-2.185-1.108-.058 0-.205.062-.322.143Z"/>
  </mask>
  <path fill="#FF3E54" d="M30.064 10.91c-.137.188-.157.537-.127 2.414.02 1.574.058 2.217.146 2.298.156.143.683.143.839 0 .088-.08.127-.724.146-2.298.03-2.458 0-2.628-.566-2.628-.195 0-.341.072-.438.215Zm-9.531 2.236c-.459.205-.361.491.81 2.368.604.966 1.16 1.824 1.238 1.905.225.241.664.205.859-.063.205-.286.244-.197-1.18-2.458-.713-1.109-1.19-1.788-1.308-1.815a.894.894 0 0 0-.419.063Zm19.49-.046c-.166.063-2.595 3.782-2.595 3.988 0 .053.069.188.157.295.185.241.634.26.838.036.371-.394 2.322-3.639 2.322-3.862 0-.349-.351-.572-.722-.456Zm-10.564 4.578c-2.81.241-5.492 1.743-7.092 3.96-.615.85-.956 1.511-1.297 2.557-.342 1.028-.43 3.004-.186 4.103.37 1.654 1.112 3.004 2.37 4.336 1.25 1.305 1.503 1.618 1.786 2.172.166.295.322.724.35.939.06.375.05.393-.282.5-.439.144-1.024.671-1.249 1.127-.263.536-.244 1.404.05 1.985.233.464.819.983 1.209 1.072.117.036.214.072.214.09 0 .009-.097.178-.214.366-.186.277-.225.474-.225 1.055 0 .626.04.769.273 1.144.293.456.937.94 1.347 1.02.224.035.273.098.322.464.146.993.975 1.985 2.058 2.477.536.232.673.259 1.61.259.907 0 1.092-.027 1.58-.242 1.063-.455 1.941-1.51 2.087-2.494.05-.366.098-.429.322-.465.41-.08 1.054-.563 1.346-1.019.234-.375.273-.518.273-1.144 0-.581-.038-.778-.214-1.055a3.54 3.54 0 0 1-.224-.366c0-.018.097-.054.224-.09.38-.09.966-.608 1.2-1.072.292-.581.312-1.449.048-1.985-.224-.456-.81-.983-1.248-1.126-.332-.108-.341-.126-.283-.501.117-.787.595-1.475 2.136-3.111 1.269-1.332 2-2.682 2.37-4.336.245-1.117.157-3.066-.194-4.148-1.18-3.62-4.341-6.06-8.38-6.472a19.256 19.256 0 0 0-1.112-.09c-.097.01-.536.045-.975.09Zm3.385 1.242c2.965.787 5.316 2.995 6.106 5.767.273.947.254 2.976-.039 3.915-.449 1.43-.985 2.289-2.312 3.674-1.434 1.502-1.795 2.092-2.136 3.469-.059.25-.068.25-.888.25a.83.83 0 0 1-.829-.829v-4.123c0-.474.384-.858.858-.858 1.093 0 1.766-.18 2.283-.608 1.356-1.118 1.063-3.174-.556-3.907-.293-.134-.595-.179-1.18-.179-.703 0-.84.027-1.259.268-.975.555-1.317 1.252-1.317 2.682 0 .42-.34.76-.76.76h-.345a1.061 1.061 0 0 1-1.06-1.01c-.068-1.386-.37-1.94-1.337-2.458-.39-.206-.556-.242-1.229-.242-.575 0-.878.045-1.17.179-1.62.733-1.912 2.79-.556 3.907.517.429 1.19.607 2.282.607.475 0 .859.385.859.859v4.123a.83.83 0 0 1-.83.83c-.819 0-.828 0-.877-.251-.312-1.305-.732-1.985-2.185-3.513-1.922-2.003-2.634-3.71-2.517-5.972.107-2.19 1.063-4.032 2.878-5.552 1.082-.92 2.555-1.627 3.97-1.913.995-.205 3.17-.134 4.146.125Zm-5.405 7.698c.664.295.82.608.82 1.68v.2a.702.702 0 0 1-.703.703c-.946 0-1.424-.134-1.804-.5-.517-.51-.546-1.207-.059-1.744.488-.527 1.073-.643 1.746-.34Zm7.541.053c.468.322.644.635.644 1.127 0 .34-.059.545-.225.76-.35.446-.731.58-1.746.625a.876.876 0 0 1-.907-.876c0-.769.03-.965.195-1.207.42-.617 1.444-.831 2.039-.429Zm-3.404 8.251a1.073 1.073 0 1 1-2.147 0v-3.664a1.073 1.073 0 0 1 2.147 0v3.664Zm3.98 2.325c.956.536.916 1.725-.078 2.208-.42.206-.43.206-4.976.206-4.545 0-4.555 0-4.974-.206-.995-.483-1.035-1.672-.079-2.208.313-.17.508-.179 5.053-.179 4.546 0 4.741.009 5.054.179Zm-1.278 3.549c.38.16.682.545.77.983.098.456-.263 1.046-.78 1.27-.39.178-.576.187-3.765.187-3.19 0-3.376-.009-3.766-.187-1.014-.447-1.034-1.797-.03-2.253.293-.125.762-.152 3.776-.152 3.024 0 3.492.018 3.795.152Zm-1.142 3.531c0 .241-.468 1.028-.78 1.305-.546.51-1.024.689-1.854.689-.829 0-1.307-.18-1.853-.689-.312-.277-.78-1.064-.78-1.305 0-.08.595-.107 2.634-.107 2.038 0 2.633.027 2.633.107ZM13.188 19.85c-.293.402-.108.546 2.107 1.717 1.15.608 2.136 1.108 2.185 1.108.058 0 .204-.062.322-.143.263-.17.282-.58.048-.769-.097-.071-1.024-.58-2.068-1.126-2.01-1.064-2.331-1.162-2.595-.787Zm31.976.814c-1.034.545-1.941 1.055-2.029 1.117-.224.17-.185.59.068.751.117.08.264.143.322.143.049 0 1.034-.5 2.185-1.108 2.215-1.171 2.4-1.314 2.107-1.717-.273-.384-.624-.277-2.653.814ZM10.73 28.62a.463.463 0 0 0 .01.805c.204.125.584.143 2.633.116 1.717-.018 2.42-.054 2.507-.134.156-.143.156-.626 0-.77-.088-.08-.8-.115-2.527-.133-2.077-.018-2.438-.01-2.624.116Zm34.541-.045c-.41.152-.39.751.03.903.127.045 1.258.08 2.497.08 2.517 0 2.702-.035 2.702-.536 0-.5-.176-.536-2.731-.527-1.259 0-2.38.036-2.498.08Zm-29.976 7.903c-2.215 1.171-2.4 1.314-2.107 1.716.263.376.585.277 2.594-.786 1.044-.546 1.97-1.055 2.068-1.127.234-.187.215-.599-.048-.768-.117-.08-.264-.143-.322-.143-.05 0-1.034.5-2.185 1.108Zm27.908-.965c-.253.16-.292.58-.068.75.088.063 1.015.573 2.068 1.127 2.039 1.081 2.351 1.18 2.614.804.293-.402.108-.545-2.107-1.716-1.15-.608-2.136-1.108-2.185-1.108-.058 0-.205.062-.322.143Z"/>
  <path stroke="#FF3E54" stroke-width=".2" d="M30.064 10.91c-.137.188-.157.537-.127 2.414.02 1.574.058 2.217.146 2.298.156.143.683.143.839 0 .088-.08.127-.724.146-2.298.03-2.458 0-2.628-.566-2.628-.195 0-.341.072-.438.215Zm-9.531 2.236c-.459.205-.361.491.81 2.368.604.966 1.16 1.824 1.238 1.905.225.241.664.205.859-.063.205-.286.244-.197-1.18-2.458-.713-1.109-1.19-1.788-1.308-1.815a.894.894 0 0 0-.419.063Zm19.49-.046c-.166.063-2.595 3.782-2.595 3.988 0 .053.069.188.157.295.185.241.634.26.838.036.371-.394 2.322-3.639 2.322-3.862 0-.349-.351-.572-.722-.456Zm-10.564 4.578c-2.81.241-5.492 1.743-7.092 3.96-.615.85-.956 1.511-1.297 2.557-.342 1.028-.43 3.004-.186 4.103.37 1.654 1.112 3.004 2.37 4.336 1.25 1.305 1.503 1.618 1.786 2.172.166.295.322.724.35.939.06.375.05.393-.282.5-.439.144-1.024.671-1.249 1.127-.263.536-.244 1.404.05 1.985.233.464.819.983 1.209 1.072.117.036.214.072.214.09 0 .009-.097.178-.214.366-.186.277-.225.474-.225 1.055 0 .626.04.769.273 1.144.293.456.937.94 1.347 1.02.224.035.273.098.322.464.146.993.975 1.985 2.058 2.477.536.232.673.259 1.61.259.907 0 1.092-.027 1.58-.242 1.063-.455 1.941-1.51 2.087-2.494.05-.366.098-.429.322-.465.41-.08 1.054-.563 1.346-1.019.234-.375.273-.518.273-1.144 0-.581-.038-.778-.214-1.055a3.54 3.54 0 0 1-.224-.366c0-.018.097-.054.224-.09.38-.09.966-.608 1.2-1.072.292-.581.312-1.449.048-1.985-.224-.456-.81-.983-1.248-1.126-.332-.108-.341-.126-.283-.501.117-.787.595-1.475 2.136-3.111 1.269-1.332 2-2.682 2.37-4.336.245-1.117.157-3.066-.194-4.148-1.18-3.62-4.341-6.06-8.38-6.472a19.256 19.256 0 0 0-1.112-.09c-.097.01-.536.045-.975.09Zm3.385 1.242c2.965.787 5.316 2.995 6.106 5.767.273.947.254 2.976-.039 3.915-.449 1.43-.985 2.289-2.312 3.674-1.434 1.502-1.795 2.092-2.136 3.469-.059.25-.068.25-.888.25a.83.83 0 0 1-.829-.829v-4.123c0-.474.384-.858.858-.858 1.093 0 1.766-.18 2.283-.608 1.356-1.118 1.063-3.174-.556-3.907-.293-.134-.595-.179-1.18-.179-.703 0-.84.027-1.259.268-.975.555-1.317 1.252-1.317 2.682 0 .42-.34.76-.76.76h-.345a1.061 1.061 0 0 1-1.06-1.01c-.068-1.386-.37-1.94-1.337-2.458-.39-.206-.556-.242-1.229-.242-.575 0-.878.045-1.17.179-1.62.733-1.912 2.79-.556 3.907.517.429 1.19.607 2.282.607.475 0 .859.385.859.859v4.123a.83.83 0 0 1-.83.83c-.819 0-.828 0-.877-.251-.312-1.305-.732-1.985-2.185-3.513-1.922-2.003-2.634-3.71-2.517-5.972.107-2.19 1.063-4.032 2.878-5.552 1.082-.92 2.555-1.627 3.97-1.913.995-.205 3.17-.134 4.146.125Zm-5.405 7.698c.664.295.82.608.82 1.68v.2a.702.702 0 0 1-.703.703c-.946 0-1.424-.134-1.804-.5-.517-.51-.546-1.207-.059-1.744.488-.527 1.073-.643 1.746-.34Zm7.541.053c.468.322.644.635.644 1.127 0 .34-.059.545-.225.76-.35.446-.731.58-1.746.625a.876.876 0 0 1-.907-.876c0-.769.03-.965.195-1.207.42-.617 1.444-.831 2.039-.429Zm-3.404 8.251a1.073 1.073 0 1 1-2.147 0v-3.664a1.073 1.073 0 0 1 2.147 0v3.664Zm3.98 2.325c.956.536.916 1.725-.078 2.208-.42.206-.43.206-4.976.206-4.545 0-4.555 0-4.974-.206-.995-.483-1.035-1.672-.079-2.208.313-.17.508-.179 5.053-.179 4.546 0 4.741.009 5.054.179Zm-1.278 3.549c.38.16.682.545.77.983.098.456-.263 1.046-.78 1.27-.39.178-.576.187-3.765.187-3.19 0-3.376-.009-3.766-.187-1.014-.447-1.034-1.797-.03-2.253.293-.125.762-.152 3.776-.152 3.024 0 3.492.018 3.795.152Zm-1.142 3.531c0 .241-.468 1.028-.78 1.305-.546.51-1.024.689-1.854.689-.829 0-1.307-.18-1.853-.689-.312-.277-.78-1.064-.78-1.305 0-.08.595-.107 2.634-.107 2.038 0 2.633.027 2.633.107ZM13.188 19.85c-.293.402-.108.546 2.107 1.717 1.15.608 2.136 1.108 2.185 1.108.058 0 .204-.062.322-.143.263-.17.282-.58.048-.769-.097-.071-1.024-.58-2.068-1.126-2.01-1.064-2.331-1.162-2.595-.787Zm31.976.814c-1.034.545-1.941 1.055-2.029 1.117-.224.17-.185.59.068.751.117.08.264.143.322.143.049 0 1.034-.5 2.185-1.108 2.215-1.171 2.4-1.314 2.107-1.717-.273-.384-.624-.277-2.653.814ZM10.73 28.62a.463.463 0 0 0 .01.805c.204.125.584.143 2.633.116 1.717-.018 2.42-.054 2.507-.134.156-.143.156-.626 0-.77-.088-.08-.8-.115-2.527-.133-2.077-.018-2.438-.01-2.624.116Zm34.541-.045c-.41.152-.39.751.03.903.127.045 1.258.08 2.497.08 2.517 0 2.702-.035 2.702-.536 0-.5-.176-.536-2.731-.527-1.259 0-2.38.036-2.498.08Zm-29.976 7.903c-2.215 1.171-2.4 1.314-2.107 1.716.263.376.585.277 2.594-.786 1.044-.546 1.97-1.055 2.068-1.127.234-.187.215-.599-.048-.768-.117-.08-.264-.143-.322-.143-.05 0-1.034.5-2.185 1.108Zm27.908-.965c-.253.16-.292.58-.068.75.088.063 1.015.573 2.068 1.127 2.039 1.081 2.351 1.18 2.614.804.293-.402.108-.545-2.107-1.716-1.15-.608-2.136-1.108-2.185-1.108-.058 0-.205.062-.322.143Z" mask="url(#a)"/>
</svg>
