<svg width="42" height="38" viewBox="0 0 42 38" fill="none" xmlns="http://www.w3.org/2000/svg">
<path d="M21.002 5.95032C21.0905 5.95032 21.1805 5.94098 21.2588 5.922C21.3358 5.90331 21.408 5.87426 21.4561 5.8302C21.4767 5.81121 21.49 5.78202 21.5 5.75208C21.5107 5.72025 21.52 5.67933 21.5283 5.63C21.5451 5.53115 21.5587 5.3915 21.5703 5.20715C21.5936 4.83813 21.6084 4.2827 21.6182 3.49622C21.6255 2.88186 21.6296 2.40954 21.6221 2.047C21.6146 1.68513 21.5959 1.42904 21.5576 1.24915C21.5194 1.06949 21.4593 0.955815 21.3613 0.890747C21.2656 0.827218 21.143 0.817505 21.002 0.817505C20.793 0.817598 20.6306 0.895477 20.5225 1.05383V1.05286C20.445 1.1596 20.406 1.3073 20.3877 1.65247C20.3785 1.82607 20.3749 2.05257 20.375 2.35266L20.3867 3.49622C20.3965 4.28271 20.4113 4.83813 20.4346 5.20715C20.4462 5.3915 20.4598 5.53115 20.4766 5.63C20.4849 5.67931 20.4942 5.72026 20.5049 5.75208C20.5149 5.78205 20.5282 5.81123 20.5488 5.8302C20.5969 5.8743 20.669 5.90331 20.7461 5.922C20.8243 5.94095 20.9135 5.95029 21.002 5.95032Z" fill="#FF3E54" stroke="#FF3E54" stroke-width="0.1"/>
<path d="M13.5249 7.79956C13.6992 7.78635 13.8725 7.70491 13.98 7.55737V7.5564C14.0272 7.49046 14.0788 7.43054 14.0913 7.34839C14.104 7.26511 14.0772 7.16651 14.0054 7.01733C13.861 6.71782 13.5119 6.17122 12.8013 5.04272V5.04175C12.4453 4.48755 12.1472 4.04003 11.9233 3.72729C11.8116 3.57116 11.7178 3.44748 11.644 3.36108C11.6072 3.31796 11.5743 3.28291 11.5464 3.25757C11.5325 3.24497 11.5192 3.23389 11.5063 3.22534C11.494 3.21713 11.4791 3.20942 11.4634 3.20581L11.4604 3.20483C11.3997 3.19472 11.3209 3.19816 11.2427 3.20972C11.1639 3.22136 11.0813 3.24242 11.0132 3.27124H11.0122C10.8949 3.32385 10.8002 3.38708 10.7554 3.48999C10.7108 3.59242 10.7219 3.72091 10.7798 3.89038C10.8955 4.22901 11.2163 4.77614 11.8003 5.71265C12.1027 6.1954 12.3932 6.6513 12.6177 6.99683C12.7299 7.16959 12.8261 7.31535 12.8989 7.42261C12.9352 7.4761 12.9655 7.52089 12.9897 7.55444C13.0131 7.5868 13.0327 7.61164 13.0454 7.62476C13.1697 7.75797 13.3509 7.81266 13.5249 7.79956Z" fill="#FF3E54" stroke="#FF3E54" stroke-width="0.1"/>
<path d="M28.4946 7.79688C28.666 7.80394 28.8456 7.74937 28.9604 7.62402H28.9595C29.056 7.52156 29.2498 7.24041 29.4839 6.87891C29.7193 6.5153 29.9989 6.06559 30.2661 5.62109C30.5333 5.17664 30.789 4.73702 30.978 4.39453C31.0725 4.2234 31.151 4.07585 31.2056 3.96387C31.2328 3.90804 31.254 3.86003 31.269 3.82227C31.2765 3.80342 31.2833 3.78625 31.2876 3.77148C31.2915 3.75789 31.2944 3.74261 31.2944 3.72852C31.2944 3.3386 30.9035 3.10081 30.5083 3.22461L30.5054 3.22559C30.4899 3.23143 30.4756 3.2432 30.4663 3.25195C30.4552 3.26235 30.443 3.27622 30.4292 3.29199C30.4012 3.32398 30.3651 3.36848 30.3237 3.42285C30.2408 3.53175 30.1319 3.68386 30.0063 3.86426C29.755 4.2254 29.4356 4.70285 29.1216 5.18457C28.8075 5.66632 28.4987 6.15314 28.2681 6.53223C28.1528 6.72172 28.056 6.88537 27.9888 7.00781C27.9554 7.0686 27.9291 7.12022 27.9106 7.16016C27.9015 7.17996 27.8935 7.19783 27.8882 7.21289C27.8834 7.22638 27.8784 7.24414 27.8784 7.25977C27.8785 7.28173 27.8848 7.30681 27.8931 7.33008C27.9018 7.35453 27.9145 7.38199 27.9292 7.41016C27.9587 7.46658 27.9994 7.5297 28.0454 7.58594C28.1495 7.72068 28.3237 7.78975 28.4946 7.79688Z" fill="#FF3E54" stroke="#FF3E54" stroke-width="0.1"/>
<mask id="path-4-outside-1_683_441" maskUnits="userSpaceOnUse" x="10.2456" y="7.47534" width="21" height="31" fill="black">
<rect fill="white" x="10.2456" y="7.47534" width="21" height="31"/>
<path d="M19.9588 7.84934C17.1494 8.09071 14.4668 9.59257 12.867 11.8096C12.2524 12.6589 11.911 13.3204 11.5696 14.3663C11.2282 15.3944 11.1404 17.3701 11.3842 18.4696C11.7549 20.1235 12.4963 21.4734 13.7547 22.8054C15.0033 24.1106 15.2569 24.4235 15.5398 24.9777C15.7057 25.2727 15.8617 25.7018 15.891 25.9164C15.9495 26.2918 15.9398 26.3097 15.6081 26.417C15.1691 26.56 14.5839 27.0875 14.3595 27.5434C14.0961 28.0798 14.1156 28.9469 14.4083 29.528C14.6424 29.9929 15.2277 30.5114 15.6179 30.6008C15.7349 30.6365 15.8325 30.6723 15.8325 30.6901C15.8325 30.6991 15.7349 30.8689 15.6179 31.0567C15.4325 31.3338 15.3935 31.5305 15.3935 32.1116C15.3935 32.7373 15.4325 32.8804 15.6666 33.2558C15.9593 33.7117 16.6031 34.1945 17.0128 34.2749C17.2372 34.3107 17.286 34.3733 17.3347 34.7398C17.4811 35.7321 18.3102 36.7244 19.393 37.2161C19.9295 37.4485 20.0661 37.4753 21.0026 37.4753C21.9098 37.4753 22.0951 37.4485 22.5829 37.234C23.6461 36.778 24.5241 35.7232 24.6704 34.7398C24.7192 34.3733 24.768 34.3107 24.9923 34.2749C25.402 34.1945 26.0459 33.7117 26.3385 33.2558C26.5726 32.8804 26.6116 32.7373 26.6116 32.1116C26.6116 31.5305 26.5726 31.3338 26.397 31.0567C26.2702 30.8689 26.1727 30.6991 26.1727 30.6901C26.1727 30.6723 26.2702 30.6365 26.397 30.6008C26.7775 30.5114 27.3628 29.9929 27.5969 29.528C27.8895 28.9469 27.909 28.0798 27.6457 27.5434C27.4213 27.0875 26.836 26.56 26.397 26.417C26.0654 26.3097 26.0556 26.2918 26.1141 25.9164C26.2312 25.1297 26.7092 24.4413 28.2505 22.8054C29.5186 21.4734 30.2502 20.1235 30.6209 18.4696C30.8648 17.3522 30.777 15.4033 30.4258 14.3216C29.2455 10.7011 26.0849 8.26056 22.0463 7.84934C21.5293 7.7957 21.0318 7.75994 20.9343 7.75994C20.8367 7.76888 20.3978 7.80464 19.9588 7.84934ZM23.3437 9.09195C26.3092 9.87864 28.6602 12.0867 29.4503 14.858C29.7234 15.8056 29.7039 17.8349 29.4113 18.7736C28.9626 20.2039 28.426 21.0621 27.0994 22.4478C25.6654 23.9496 25.3045 24.5397 24.9631 25.9164C24.9045 26.1667 24.8948 26.1667 24.0754 26.1667H23.2462V23.2613V20.3559H24.1046C25.1972 20.3559 25.8703 20.1771 26.3873 19.748C27.7432 18.6306 27.4506 16.5744 25.8312 15.8414C25.5386 15.7073 25.2362 15.6626 24.6509 15.6626C23.9486 15.6626 23.812 15.6894 23.3925 15.9308C22.417 16.485 22.0756 17.1823 22.0756 18.6127V19.3725H21.0123H19.9588L19.91 18.3624C19.8417 16.9767 19.5393 16.4225 18.5736 15.904C18.1834 15.6984 18.0176 15.6626 17.3445 15.6626C16.7689 15.6626 16.4665 15.7073 16.1739 15.8414C14.5546 16.5744 14.2619 18.6306 15.6179 19.748C16.1349 20.1771 16.808 20.3559 17.9005 20.3559H18.7589V23.2613V26.1667H17.9298C17.1104 26.1667 17.1006 26.1667 17.0518 25.9164C16.7397 24.6112 16.3202 23.9318 14.8667 22.4031C12.945 20.4006 12.2329 18.6931 12.35 16.4314C12.4573 14.2412 13.4133 12.3996 15.2277 10.8799C16.3105 9.9591 17.7835 9.25286 19.1979 8.96679C20.1929 8.76118 22.3683 8.8327 23.3437 9.09195ZM17.9395 16.789C18.6029 17.084 18.7589 17.3969 18.7589 18.4696V19.3725H18.0566C17.1104 19.3725 16.6324 19.2385 16.2519 18.8719C15.7349 18.3624 15.7057 17.6651 16.1934 17.1287C16.6812 16.6013 17.2664 16.485 17.9395 16.789ZM25.4801 16.8426C25.9483 17.1645 26.1239 17.4773 26.1239 17.969C26.1239 18.3087 26.0654 18.5143 25.8995 18.7289C25.5484 19.1759 25.1679 19.31 24.1534 19.3547L23.2462 19.3904V18.4786C23.2462 17.7098 23.2755 17.5131 23.4413 17.2717C23.8608 16.6549 24.885 16.4403 25.4801 16.8426ZM22.0756 23.2613V26.1667H21.0026H19.9295V23.2613V20.3559H21.0026H22.0756V23.2613ZM26.0556 27.4182C27.0116 27.9546 26.9726 29.1436 25.9776 29.6263C25.5581 29.8319 25.5484 29.8319 21.0026 29.8319C16.4568 29.8319 16.447 29.8319 16.0276 29.6263C15.0326 29.1436 14.9936 27.9546 15.9495 27.4182C16.2617 27.2484 16.4568 27.2394 21.0026 27.2394C25.5484 27.2394 25.7435 27.2484 26.0556 27.4182ZM24.7777 30.9673C25.1582 31.1282 25.4606 31.5126 25.5484 31.9506C25.6459 32.4066 25.285 32.9966 24.768 33.2201C24.3778 33.3989 24.1924 33.4078 21.0026 33.4078C17.8127 33.4078 17.6274 33.3989 17.2372 33.2201C16.2227 32.7731 16.2032 31.4232 17.2079 30.9673C17.5006 30.8421 17.9688 30.8153 20.9831 30.8153C24.0071 30.8153 24.4753 30.8332 24.7777 30.9673ZM23.6364 34.4984C23.6364 34.7398 23.1682 35.5265 22.856 35.8036C22.3097 36.3132 21.8317 36.492 21.0026 36.492C20.1734 36.492 19.6954 36.3132 19.1491 35.8036C18.837 35.5265 18.3688 34.7398 18.3688 34.4984C18.3688 34.418 18.9638 34.3912 21.0026 34.3912C23.0413 34.3912 23.6364 34.418 23.6364 34.4984Z"/>
</mask>
<path d="M19.9588 7.84934C17.1494 8.09071 14.4668 9.59257 12.867 11.8096C12.2524 12.6589 11.911 13.3204 11.5696 14.3663C11.2282 15.3944 11.1404 17.3701 11.3842 18.4696C11.7549 20.1235 12.4963 21.4734 13.7547 22.8054C15.0033 24.1106 15.2569 24.4235 15.5398 24.9777C15.7057 25.2727 15.8617 25.7018 15.891 25.9164C15.9495 26.2918 15.9398 26.3097 15.6081 26.417C15.1691 26.56 14.5839 27.0875 14.3595 27.5434C14.0961 28.0798 14.1156 28.9469 14.4083 29.528C14.6424 29.9929 15.2277 30.5114 15.6179 30.6008C15.7349 30.6365 15.8325 30.6723 15.8325 30.6901C15.8325 30.6991 15.7349 30.8689 15.6179 31.0567C15.4325 31.3338 15.3935 31.5305 15.3935 32.1116C15.3935 32.7373 15.4325 32.8804 15.6666 33.2558C15.9593 33.7117 16.6031 34.1945 17.0128 34.2749C17.2372 34.3107 17.286 34.3733 17.3347 34.7398C17.4811 35.7321 18.3102 36.7244 19.393 37.2161C19.9295 37.4485 20.0661 37.4753 21.0026 37.4753C21.9098 37.4753 22.0951 37.4485 22.5829 37.234C23.6461 36.778 24.5241 35.7232 24.6704 34.7398C24.7192 34.3733 24.768 34.3107 24.9923 34.2749C25.402 34.1945 26.0459 33.7117 26.3385 33.2558C26.5726 32.8804 26.6116 32.7373 26.6116 32.1116C26.6116 31.5305 26.5726 31.3338 26.397 31.0567C26.2702 30.8689 26.1727 30.6991 26.1727 30.6901C26.1727 30.6723 26.2702 30.6365 26.397 30.6008C26.7775 30.5114 27.3628 29.9929 27.5969 29.528C27.8895 28.9469 27.909 28.0798 27.6457 27.5434C27.4213 27.0875 26.836 26.56 26.397 26.417C26.0654 26.3097 26.0556 26.2918 26.1141 25.9164C26.2312 25.1297 26.7092 24.4413 28.2505 22.8054C29.5186 21.4734 30.2502 20.1235 30.6209 18.4696C30.8648 17.3522 30.777 15.4033 30.4258 14.3216C29.2455 10.7011 26.0849 8.26056 22.0463 7.84934C21.5293 7.7957 21.0318 7.75994 20.9343 7.75994C20.8367 7.76888 20.3978 7.80464 19.9588 7.84934ZM23.3437 9.09195C26.3092 9.87864 28.6602 12.0867 29.4503 14.858C29.7234 15.8056 29.7039 17.8349 29.4113 18.7736C28.9626 20.2039 28.426 21.0621 27.0994 22.4478C25.6654 23.9496 25.3045 24.5397 24.9631 25.9164C24.9045 26.1667 24.8948 26.1667 24.0754 26.1667H23.2462V23.2613V20.3559H24.1046C25.1972 20.3559 25.8703 20.1771 26.3873 19.748C27.7432 18.6306 27.4506 16.5744 25.8312 15.8414C25.5386 15.7073 25.2362 15.6626 24.6509 15.6626C23.9486 15.6626 23.812 15.6894 23.3925 15.9308C22.417 16.485 22.0756 17.1823 22.0756 18.6127V19.3725H21.0123H19.9588L19.91 18.3624C19.8417 16.9767 19.5393 16.4225 18.5736 15.904C18.1834 15.6984 18.0176 15.6626 17.3445 15.6626C16.7689 15.6626 16.4665 15.7073 16.1739 15.8414C14.5546 16.5744 14.2619 18.6306 15.6179 19.748C16.1349 20.1771 16.808 20.3559 17.9005 20.3559H18.7589V23.2613V26.1667H17.9298C17.1104 26.1667 17.1006 26.1667 17.0518 25.9164C16.7397 24.6112 16.3202 23.9318 14.8667 22.4031C12.945 20.4006 12.2329 18.6931 12.35 16.4314C12.4573 14.2412 13.4133 12.3996 15.2277 10.8799C16.3105 9.9591 17.7835 9.25286 19.1979 8.96679C20.1929 8.76118 22.3683 8.8327 23.3437 9.09195ZM17.9395 16.789C18.6029 17.084 18.7589 17.3969 18.7589 18.4696V19.3725H18.0566C17.1104 19.3725 16.6324 19.2385 16.2519 18.8719C15.7349 18.3624 15.7057 17.6651 16.1934 17.1287C16.6812 16.6013 17.2664 16.485 17.9395 16.789ZM25.4801 16.8426C25.9483 17.1645 26.1239 17.4773 26.1239 17.969C26.1239 18.3087 26.0654 18.5143 25.8995 18.7289C25.5484 19.1759 25.1679 19.31 24.1534 19.3547L23.2462 19.3904V18.4786C23.2462 17.7098 23.2755 17.5131 23.4413 17.2717C23.8608 16.6549 24.885 16.4403 25.4801 16.8426ZM22.0756 23.2613V26.1667H21.0026H19.9295V23.2613V20.3559H21.0026H22.0756V23.2613ZM26.0556 27.4182C27.0116 27.9546 26.9726 29.1436 25.9776 29.6263C25.5581 29.8319 25.5484 29.8319 21.0026 29.8319C16.4568 29.8319 16.447 29.8319 16.0276 29.6263C15.0326 29.1436 14.9936 27.9546 15.9495 27.4182C16.2617 27.2484 16.4568 27.2394 21.0026 27.2394C25.5484 27.2394 25.7435 27.2484 26.0556 27.4182ZM24.7777 30.9673C25.1582 31.1282 25.4606 31.5126 25.5484 31.9506C25.6459 32.4066 25.285 32.9966 24.768 33.2201C24.3778 33.3989 24.1924 33.4078 21.0026 33.4078C17.8127 33.4078 17.6274 33.3989 17.2372 33.2201C16.2227 32.7731 16.2032 31.4232 17.2079 30.9673C17.5006 30.8421 17.9688 30.8153 20.9831 30.8153C24.0071 30.8153 24.4753 30.8332 24.7777 30.9673ZM23.6364 34.4984C23.6364 34.7398 23.1682 35.5265 22.856 35.8036C22.3097 36.3132 21.8317 36.492 21.0026 36.492C20.1734 36.492 19.6954 36.3132 19.1491 35.8036C18.837 35.5265 18.3688 34.7398 18.3688 34.4984C18.3688 34.418 18.9638 34.3912 21.0026 34.3912C23.0413 34.3912 23.6364 34.418 23.6364 34.4984Z" fill="#FF3E54"/>
<path d="M19.9588 7.84934C17.1494 8.09071 14.4668 9.59257 12.867 11.8096C12.2524 12.6589 11.911 13.3204 11.5696 14.3663C11.2282 15.3944 11.1404 17.3701 11.3842 18.4696C11.7549 20.1235 12.4963 21.4734 13.7547 22.8054C15.0033 24.1106 15.2569 24.4235 15.5398 24.9777C15.7057 25.2727 15.8617 25.7018 15.891 25.9164C15.9495 26.2918 15.9398 26.3097 15.6081 26.417C15.1691 26.56 14.5839 27.0875 14.3595 27.5434C14.0961 28.0798 14.1156 28.9469 14.4083 29.528C14.6424 29.9929 15.2277 30.5114 15.6179 30.6008C15.7349 30.6365 15.8325 30.6723 15.8325 30.6901C15.8325 30.6991 15.7349 30.8689 15.6179 31.0567C15.4325 31.3338 15.3935 31.5305 15.3935 32.1116C15.3935 32.7373 15.4325 32.8804 15.6666 33.2558C15.9593 33.7117 16.6031 34.1945 17.0128 34.2749C17.2372 34.3107 17.286 34.3733 17.3347 34.7398C17.4811 35.7321 18.3102 36.7244 19.393 37.2161C19.9295 37.4485 20.0661 37.4753 21.0026 37.4753C21.9098 37.4753 22.0951 37.4485 22.5829 37.234C23.6461 36.778 24.5241 35.7232 24.6704 34.7398C24.7192 34.3733 24.768 34.3107 24.9923 34.2749C25.402 34.1945 26.0459 33.7117 26.3385 33.2558C26.5726 32.8804 26.6116 32.7373 26.6116 32.1116C26.6116 31.5305 26.5726 31.3338 26.397 31.0567C26.2702 30.8689 26.1727 30.6991 26.1727 30.6901C26.1727 30.6723 26.2702 30.6365 26.397 30.6008C26.7775 30.5114 27.3628 29.9929 27.5969 29.528C27.8895 28.9469 27.909 28.0798 27.6457 27.5434C27.4213 27.0875 26.836 26.56 26.397 26.417C26.0654 26.3097 26.0556 26.2918 26.1141 25.9164C26.2312 25.1297 26.7092 24.4413 28.2505 22.8054C29.5186 21.4734 30.2502 20.1235 30.6209 18.4696C30.8648 17.3522 30.777 15.4033 30.4258 14.3216C29.2455 10.7011 26.0849 8.26056 22.0463 7.84934C21.5293 7.7957 21.0318 7.75994 20.9343 7.75994C20.8367 7.76888 20.3978 7.80464 19.9588 7.84934ZM23.3437 9.09195C26.3092 9.87864 28.6602 12.0867 29.4503 14.858C29.7234 15.8056 29.7039 17.8349 29.4113 18.7736C28.9626 20.2039 28.426 21.0621 27.0994 22.4478C25.6654 23.9496 25.3045 24.5397 24.9631 25.9164C24.9045 26.1667 24.8948 26.1667 24.0754 26.1667H23.2462V23.2613V20.3559H24.1046C25.1972 20.3559 25.8703 20.1771 26.3873 19.748C27.7432 18.6306 27.4506 16.5744 25.8312 15.8414C25.5386 15.7073 25.2362 15.6626 24.6509 15.6626C23.9486 15.6626 23.812 15.6894 23.3925 15.9308C22.417 16.485 22.0756 17.1823 22.0756 18.6127V19.3725H21.0123H19.9588L19.91 18.3624C19.8417 16.9767 19.5393 16.4225 18.5736 15.904C18.1834 15.6984 18.0176 15.6626 17.3445 15.6626C16.7689 15.6626 16.4665 15.7073 16.1739 15.8414C14.5546 16.5744 14.2619 18.6306 15.6179 19.748C16.1349 20.1771 16.808 20.3559 17.9005 20.3559H18.7589V23.2613V26.1667H17.9298C17.1104 26.1667 17.1006 26.1667 17.0518 25.9164C16.7397 24.6112 16.3202 23.9318 14.8667 22.4031C12.945 20.4006 12.2329 18.6931 12.35 16.4314C12.4573 14.2412 13.4133 12.3996 15.2277 10.8799C16.3105 9.9591 17.7835 9.25286 19.1979 8.96679C20.1929 8.76118 22.3683 8.8327 23.3437 9.09195ZM17.9395 16.789C18.6029 17.084 18.7589 17.3969 18.7589 18.4696V19.3725H18.0566C17.1104 19.3725 16.6324 19.2385 16.2519 18.8719C15.7349 18.3624 15.7057 17.6651 16.1934 17.1287C16.6812 16.6013 17.2664 16.485 17.9395 16.789ZM25.4801 16.8426C25.9483 17.1645 26.1239 17.4773 26.1239 17.969C26.1239 18.3087 26.0654 18.5143 25.8995 18.7289C25.5484 19.1759 25.1679 19.31 24.1534 19.3547L23.2462 19.3904V18.4786C23.2462 17.7098 23.2755 17.5131 23.4413 17.2717C23.8608 16.6549 24.885 16.4403 25.4801 16.8426ZM22.0756 23.2613V26.1667H21.0026H19.9295V23.2613V20.3559H21.0026H22.0756V23.2613ZM26.0556 27.4182C27.0116 27.9546 26.9726 29.1436 25.9776 29.6263C25.5581 29.8319 25.5484 29.8319 21.0026 29.8319C16.4568 29.8319 16.447 29.8319 16.0276 29.6263C15.0326 29.1436 14.9936 27.9546 15.9495 27.4182C16.2617 27.2484 16.4568 27.2394 21.0026 27.2394C25.5484 27.2394 25.7435 27.2484 26.0556 27.4182ZM24.7777 30.9673C25.1582 31.1282 25.4606 31.5126 25.5484 31.9506C25.6459 32.4066 25.285 32.9966 24.768 33.2201C24.3778 33.3989 24.1924 33.4078 21.0026 33.4078C17.8127 33.4078 17.6274 33.3989 17.2372 33.2201C16.2227 32.7731 16.2032 31.4232 17.2079 30.9673C17.5006 30.8421 17.9688 30.8153 20.9831 30.8153C24.0071 30.8153 24.4753 30.8332 24.7777 30.9673ZM23.6364 34.4984C23.6364 34.7398 23.1682 35.5265 22.856 35.8036C22.3097 36.3132 21.8317 36.492 21.0026 36.492C20.1734 36.492 19.6954 36.3132 19.1491 35.8036C18.837 35.5265 18.3688 34.7398 18.3688 34.4984C18.3688 34.418 18.9638 34.3912 21.0026 34.3912C23.0413 34.3912 23.6364 34.418 23.6364 34.4984Z" stroke="#FF3E54" stroke-width="0.2" mask="url(#path-4-outside-1_683_441)"/>
<path d="M8.05273 12.8837C8.07884 12.8758 8.10818 12.8648 8.13867 12.8514C8.19988 12.8246 8.26879 12.7871 8.33008 12.745H8.3291C8.47576 12.6501 8.55314 12.4895 8.5625 12.329C8.57179 12.1684 8.51366 12.0011 8.38184 11.8954L8.37988 11.8944C8.35256 11.8744 8.27292 11.8273 8.15723 11.7616C8.04011 11.6951 7.88233 11.6079 7.69531 11.5057C7.3207 11.3011 6.82777 11.0363 6.30566 10.7635L6.30469 10.7645C5.30208 10.2338 4.71495 9.93939 4.34473 9.82703C4.15932 9.77077 4.02035 9.75735 3.9082 9.78796C3.79377 9.81925 3.71566 9.89442 3.64648 9.99304C3.5732 10.0939 3.519 10.192 3.53223 10.3007C3.54555 10.4093 3.62425 10.5129 3.76953 10.6307C4.06103 10.8671 4.66718 11.1981 5.77148 11.7821C6.34704 12.0861 6.88082 12.364 7.27734 12.5653C7.47559 12.6659 7.64014 12.7469 7.75781 12.8036C7.81654 12.8319 7.8638 12.8548 7.89844 12.87C7.91569 12.8776 7.93094 12.8833 7.94238 12.8876C7.94789 12.8896 7.9531 12.892 7.95801 12.8934C7.96153 12.8945 7.97024 12.8964 7.97949 12.8964C8.00142 12.8964 8.02742 12.8913 8.05273 12.8837Z" fill="#FF3E54" stroke="#FF3E54" stroke-width="0.1"/>
<path d="M34.0464 12.8934C34.0514 12.892 34.0573 12.8897 34.063 12.8876C34.0743 12.8833 34.0889 12.8775 34.106 12.87C34.1406 12.8548 34.1888 12.8319 34.2476 12.8036C34.3652 12.747 34.5292 12.6657 34.7271 12.5653C35.1236 12.364 35.6582 12.0861 36.2339 11.7821C37.3385 11.1979 37.9445 10.8671 38.2358 10.6307C38.3811 10.5129 38.4598 10.4093 38.4731 10.3007C38.4864 10.1917 38.4315 10.0932 38.3579 9.99207L38.3569 9.99304C38.285 9.89197 38.204 9.81606 38.0854 9.78503C37.9691 9.75464 37.8252 9.76851 37.6343 9.82703C37.2529 9.94394 36.6528 10.2466 35.6401 10.7909C35.1232 11.0635 34.6381 11.3277 34.271 11.5311C34.0873 11.6329 33.9327 11.7198 33.8188 11.785C33.7064 11.8495 33.6304 11.8945 33.606 11.912L33.605 11.913C33.4753 12.0112 33.4255 12.1777 33.4399 12.3358C33.4545 12.4943 33.5339 12.6556 33.6763 12.746C33.7372 12.7877 33.8059 12.8248 33.8667 12.8514C33.8971 12.8648 33.9266 12.8759 33.9526 12.8837C33.9777 12.8912 34.0031 12.8963 34.0249 12.8964C34.034 12.8964 34.0427 12.8945 34.0464 12.8934Z" fill="#FF3E54" stroke="#FF3E54" stroke-width="0.1"/>
<path d="M3.87305 19.7621C4.7315 19.7531 5.3379 19.7394 5.74023 19.7181C5.94085 19.7075 6.09207 19.6953 6.19922 19.6801C6.25276 19.6724 6.29707 19.6642 6.33105 19.6547C6.36299 19.6457 6.39383 19.6332 6.41406 19.6146C6.46233 19.5702 6.49492 19.5036 6.51562 19.432C6.53665 19.3591 6.54688 19.2758 6.54688 19.1937C6.54687 19.1117 6.53665 19.0283 6.51562 18.9554C6.49491 18.8838 6.46233 18.8173 6.41406 18.7728C6.39374 18.7542 6.36224 18.7418 6.33008 18.7328C6.29595 18.7233 6.25196 18.715 6.19824 18.7074C6.08996 18.6921 5.93624 18.6799 5.7334 18.6693C5.32742 18.648 4.71658 18.6343 3.85352 18.6254C2.81533 18.6164 2.20376 18.6145 1.8291 18.6302C1.4575 18.6459 1.30701 18.6789 1.20117 18.7504V18.7513C0.859061 18.9687 0.870319 19.4328 1.21289 19.639C1.32736 19.7089 1.48574 19.7444 1.8623 19.7611C2.24076 19.7779 2.84949 19.7755 3.87305 19.7621Z" fill="#FF3E54" stroke="#FF3E54" stroke-width="0.1"/>
<path d="M38.2979 19.7799C39.5533 19.7799 40.2355 19.7716 40.6025 19.6989C40.7861 19.6624 40.9027 19.6075 40.9707 19.5192C41.0385 19.431 41.0498 19.3195 41.0498 19.194C41.0498 19.0686 41.0392 18.9569 40.9717 18.8688C40.9038 18.7802 40.7866 18.7259 40.6016 18.6901C40.232 18.6186 39.5429 18.6114 38.2686 18.6158C37.639 18.6158 37.0429 18.6257 36.5898 18.6403C36.3635 18.6475 36.1723 18.656 36.0303 18.6656C35.9593 18.6705 35.9 18.6759 35.8545 18.6813C35.8113 18.6864 35.7743 18.6917 35.7529 18.6998C35.5255 18.7846 35.4181 18.9941 35.4248 19.1998C35.4315 19.4055 35.5521 19.6131 35.7832 19.6969H35.7842C35.8062 19.7046 35.8432 19.7103 35.8877 19.7155C35.9343 19.7208 35.9945 19.7262 36.0664 19.7311C36.2105 19.7408 36.4038 19.7492 36.6309 19.7565C37.085 19.771 37.6782 19.7799 38.2979 19.7799Z" fill="#FF3E54" stroke="#FF3E54" stroke-width="0.1"/>
<path d="M3.9082 28.5994C4.02036 28.63 4.1593 28.6166 4.34473 28.5603C4.715 28.4479 5.30284 28.1547 6.30566 27.6238C6.82775 27.351 7.32072 27.0872 7.69531 26.8826C7.88252 26.7803 8.04003 26.6922 8.15723 26.6257L8.37988 26.4929L8.38184 26.4919C8.51362 26.3862 8.57179 26.2189 8.5625 26.0583C8.55311 25.898 8.47547 25.7382 8.3291 25.6433C8.26792 25.6013 8.19978 25.5637 8.13867 25.5369C8.10813 25.5235 8.07888 25.5115 8.05273 25.5037C8.02742 25.4961 8.00142 25.491 7.97949 25.491C7.97024 25.491 7.96153 25.4929 7.95801 25.4939C7.9531 25.4953 7.94789 25.4977 7.94238 25.4998C7.93094 25.504 7.91569 25.5107 7.89844 25.5183C7.86383 25.5335 7.81634 25.5556 7.75781 25.5837C7.64013 25.6404 7.4756 25.7224 7.27734 25.823C6.88086 26.0242 6.34686 26.3014 5.77148 26.6052C4.66674 27.1895 4.0609 27.5212 3.76953 27.7576C3.62429 27.8754 3.54554 27.978 3.53223 28.0867C3.51892 28.1956 3.57297 28.2942 3.64648 28.3953C3.71558 28.4936 3.79396 28.5681 3.9082 28.5994Z" fill="#FF3E54" stroke="#FF3E54" stroke-width="0.1"/>
<path d="M38.0981 28.5986C38.2117 28.5676 38.2891 28.4934 38.3579 28.3955C38.4314 28.2945 38.4863 28.1958 38.4731 28.0869C38.4598 27.9783 38.3811 27.8747 38.2358 27.7568C37.9445 27.5205 37.3385 27.1897 36.2339 26.6055C35.6582 26.3014 35.1236 26.0236 34.7271 25.8223C34.5292 25.7218 34.3652 25.6406 34.2476 25.584C34.1888 25.5557 34.1406 25.5328 34.106 25.5176C34.0889 25.5101 34.0744 25.5043 34.063 25.5C34.0573 25.4979 34.0514 25.4956 34.0464 25.4941C34.0427 25.4931 34.034 25.4912 34.0249 25.4912C34.0031 25.4913 33.9777 25.4964 33.9526 25.5039C33.9266 25.5117 33.8972 25.5228 33.8667 25.5361C33.8058 25.5629 33.7373 25.6007 33.6763 25.6426C33.5342 25.733 33.4544 25.8935 33.4399 26.0518C33.4255 26.2099 33.4753 26.3764 33.605 26.4746L33.606 26.4756C33.6306 26.4932 33.7083 26.538 33.8228 26.6025C33.9386 26.6679 34.0956 26.7552 34.2827 26.8574C34.6573 27.062 35.1532 27.3282 35.6802 27.6055C36.6976 28.1453 37.2903 28.443 37.6616 28.5576C37.8475 28.615 37.9863 28.629 38.0981 28.5986Z" fill="#FF3E54" stroke="#FF3E54" stroke-width="0.1"/>
</svg>