<svg width="50" height="47" viewBox="0 0 50 47" fill="none" xmlns="http://www.w3.org/2000/svg">
<path d="M4.24805 13.9325V27.6252H2.88086H1.51367V17.4407C1.51367 7.79316 1.52344 7.24724 1.69922 6.90716C1.85547 6.57603 2.31445 6.1375 2.72461 5.92271C2.89062 5.83322 2.88086 5.78847 2.62695 5.20676C2.48047 4.85773 2.35352 4.56239 2.33398 4.55344C2.32422 4.53555 2.08008 4.63399 1.80664 4.76823C1.20117 5.07251 0.644531 5.60948 0.273438 6.25385L0 6.72817V20.2419V33.7556L0.322266 34.3552C0.693359 35.0533 1.29883 35.5903 2.09961 35.9393L2.63672 36.172L9.99023 36.1988L17.334 36.2167V38.6241V41.0226L15.9277 41.0673C14.6387 41.1121 14.4629 41.1389 13.9746 41.3537C13.6719 41.488 13.2812 41.7565 13.0957 41.9623C12.5488 42.544 12.4512 42.9378 12.4512 44.6024V46.0612H24.9512H37.4512V44.6024C37.4512 42.9378 37.3535 42.544 36.8066 41.9623C36.6211 41.7565 36.2305 41.488 35.9277 41.3537C35.4395 41.1389 35.2637 41.1121 33.9746 41.0673L32.5684 41.0226V38.6241V36.2167L39.9219 36.1988L47.2656 36.172L47.8027 35.9393C48.6035 35.5903 49.209 35.0533 49.5801 34.3552L49.9023 33.7556V20.2866V6.81766L49.5898 6.227C49.209 5.51999 48.5938 4.97407 47.8223 4.64294L47.2656 4.4013L34.8438 4.37445L22.4121 4.35656V5.07251V5.78847H34.5996C46.2402 5.78847 46.7969 5.79742 47.168 5.95851C47.3828 6.04801 47.6758 6.23595 47.8223 6.37914C48.418 6.9698 48.3887 6.34334 48.3887 17.4676V27.6252H35.4004H22.4121V17.745V7.86475L20.6055 5.09936C19.6094 3.5869 18.7598 2.33397 18.7109 2.31607C18.6621 2.29817 17.8027 3.5332 16.8066 5.06356L14.9902 7.82896V17.7271V27.6252H13.8184H12.6465V13.9325V0.239792H8.44727H4.24805V13.9325ZM11.084 14.6485V27.6252H8.44727H5.81055V26.8645V26.1038H7.56836H9.32617V25.3878V24.6719H7.56836H5.81055V24.0454V23.419H6.78711H7.76367V22.703V21.987H6.78711H5.81055V21.3606V20.7341H7.56836H9.32617V20.0182V19.3022H7.56836H5.81055V18.6757V18.0493H6.78711H7.76367V17.3333V16.6173H6.78711H5.81055V15.9909V15.3644H7.56836H9.32617V14.6485V13.9325H7.56836H5.81055V13.306V12.6796H6.78711H7.76367V11.9636V11.2477H6.78711H5.81055V10.6212V9.99473H7.56836H9.32617V9.27877V8.56281H7.56836H5.81055V7.93635V7.30988H6.78711H7.76367V6.59393V5.87797H6.78711H5.81055V5.2515V4.62504H7.56836H9.32617V3.90908V3.19312H7.56836H5.81055V2.43242V1.67171H8.44727H11.084V14.6485ZM19.6484 6.45968L20.5371 7.83791L19.6094 8.33908L18.6914 8.8492L17.7637 8.33908L16.8457 7.83791L17.0898 7.46202C17.2266 7.25619 17.627 6.62972 17.9883 6.07486C18.3496 5.52894 18.6719 5.07251 18.7012 5.07251C18.7305 5.07251 19.1504 5.69898 19.6484 6.45968ZM19.5508 10.0753C20.0195 9.81574 20.5078 9.54726 20.6348 9.47566L20.8496 9.35037V16.6979V24.0454H18.7012H16.5527V16.7068V9.37722L17.6172 9.95893L18.6914 10.5496L19.5508 10.0753ZM20.8496 26.5513V27.6252H18.7012H16.5527V26.5513V25.4773H18.7012H20.8496V26.5513ZM48.3887 31.1782C48.3887 33.5677 48.3301 33.7914 47.6953 34.2836C47.002 34.8206 48.6133 34.7848 24.9512 34.7848C1.28906 34.7848 2.90039 34.8206 2.20703 34.2836C1.57227 33.7914 1.51367 33.5677 1.51367 31.1782V29.0571H24.9512H48.3887V31.1782ZM31.0059 38.6331V41.0494H24.9512H18.8965V38.6331V36.2167H24.9512H31.0059V38.6331ZM35.332 42.6962C35.7422 42.9557 35.8887 43.2868 35.8887 44.0028V44.6292H24.9512H14.0137V44.0028C14.0137 43.1347 14.2969 42.7051 14.9414 42.544C15.0488 42.5172 19.6191 42.5082 25.0977 42.5172C34.707 42.5261 35.0684 42.5351 35.332 42.6962Z" fill="#FF3E54"/>
<path d="M17.9199 14.1562V16.4384H18.7012H19.4824V14.1562V11.8741H18.7012H17.9199V14.1562Z" fill="#FF3E54"/>
<path d="M17.9199 18.4073V19.1232H18.7012H19.4824V18.4073V17.6913H18.7012H17.9199V18.4073Z" fill="#FF3E54"/>
<path d="M17.9199 21.5396V22.703H18.7012H19.4824V21.5396V20.3761H18.7012H17.9199V21.5396Z" fill="#FF3E54"/>
<path d="M21.2402 31.9209V32.6369H22.0215H22.8027V31.9209V31.205H22.0215H21.2402V31.9209Z" fill="#FF3E54"/>
<path d="M24.1699 31.9209V32.6369H24.9512H25.7324V31.9209V31.205H24.9512H24.1699V31.9209Z" fill="#FF3E54"/>
<path d="M27.0996 31.9209V32.6369H27.8809H28.6621V31.9209V31.205H27.8809H27.0996V31.9209Z" fill="#FF3E54"/>
<path d="M23.7793 7.75739V8.47334H24.5605H25.3418V16.7069V24.9404H24.5605H23.7793V25.6564V26.3723H26.0742H28.3691V25.6564V24.9404H27.6367H26.9043V16.7069V8.47334H27.6367H28.3691V7.75739V7.04143H26.0742H23.7793V7.75739Z" fill="#FF3E54"/>
<path d="M29.834 10.8897V14.738H38.4277H47.0215V10.8897V7.04142H38.4277H29.834V10.8897ZM45.459 10.8897V13.3061H38.4277H31.3965V10.8897V8.47334H38.4277H45.459V10.8897Z" fill="#FF3E54"/>
<path d="M29.834 18.4967V21.0026H33.7891H37.7441V18.4967V15.9909H33.7891H29.834V18.4967ZM36.1816 18.4967V19.5706H33.7891H31.3965V18.4967V17.4228H33.7891H36.1816V18.4967Z" fill="#FF3E54"/>
<path d="M39.1113 18.4967V21.0026H43.0664H47.0215V18.4967V15.9909H43.0664H39.1113V18.4967ZM45.459 18.4967V19.5706H43.0664H40.6738V18.4967V17.4228H43.0664H45.459V18.4967Z" fill="#FF3E54"/>
<path d="M30.6152 23.4189V24.1349H32.373H34.1309V23.4189V22.703H32.373H30.6152V23.4189Z" fill="#FF3E54"/>
<path d="M35.498 23.4189V24.1349H36.2793H37.0605V23.4189V22.703H36.2793H35.498V23.4189Z" fill="#FF3E54"/>
<path d="M39.8926 23.4189V24.1349H41.6504H43.4082V23.4189V22.703H41.6504H39.8926V23.4189Z" fill="#FF3E54"/>
<path d="M44.7754 23.4189V24.1349H45.5566H46.3379V23.4189V22.703H45.5566H44.7754V23.4189Z" fill="#FF3E54"/>
</svg>