<svg xmlns="http://www.w3.org/2000/svg" width="165" height="33" fill="none" viewBox="0 0 165 33">
  <g clip-path="url(#a)">
    <path fill="#FF3000" d="m150.788 16.566 2.769 3.253-2.769-3.253h-.644l-7.204 8.466h6.499l4.277-5.026v-3.44h-2.928Z"/>
    <path fill="#FFB900" d="M157.793 16.566h-3.572v3.44l4.277 5.026H165l-7.207-8.466Z"/>
    <path fill="#00B3F2" d="M149.439 7.597h-6.499l7.199 8.462h3.577v-3.436l-4.277-5.026Z"/>
    <path fill="#83B200" d="m158.498 7.597-4.277 5.026v3.436h3.58L165 7.597h-6.502Z"/>
    <path fill="#000" d="M20.742 15.078c-.561-.425-1.294-.741-2.2-.947-.907-.206-2.029-.322-3.365-.347l-7.768-.147c-.884-.023-1.455-.116-1.718-.273-.262-.157-.394-.442-.394-.857 0-.414.15-.736.447-.965.298-.232.864-.347 1.7-.347h6.192c1.98 0 2.97.473 2.97 1.423h5.583c0-1.07-.149-1.956-.447-2.661-.298-.705-.74-1.259-1.323-1.66-.587-.401-1.324-.68-2.221-.839-.894-.157-1.94-.237-3.132-.237H7.048c-1.336 0-2.453.121-3.347.366-.894.244-1.617.602-2.165 1.075A3.884 3.884 0 0 0 .37 10.376c-.227.67-.34 1.429-.34 2.28v.875c0 .924.136 1.691.411 2.299a3.634 3.634 0 0 0 1.182 1.477c.513.378 1.145.643 1.897.803.753.16 1.604.25 2.56.273l7.982.146c.93.026 1.55.165 1.862.42.31.254.464.589.464 1.003 0 .464-.161.821-.482 1.076-.323.255-.937.384-1.844.384H7.477c-.477 0-.859-.042-1.144-.13a1.774 1.774 0 0 1-.68-.347 1.003 1.003 0 0 1-.323-.473c-.048-.17-.07-.34-.07-.51H0c0 1.07.162 1.951.482 2.643a4.135 4.135 0 0 0 1.36 1.66c.583.415 1.293.7 2.129.857.834.16 1.753.237 2.756.237h8.447c2.34 0 4.11-.46 5.315-1.384 1.205-.924 1.809-2.299 1.809-4.12v-.948c0-.875-.119-1.624-.359-2.241a3.546 3.546 0 0 0-1.2-1.568l.003-.01Zm23.568-2.777c-.396-.862-1.005-1.683-1.824-2.46-.793-.777-1.778-1.361-2.955-1.75-1.177-.388-2.521-.594-4.032-.62l-1.535.036c-1.587 0-2.981.219-4.184.656-1.202.438-2.213 1.094-3.034 1.969a9.006 9.006 0 0 0-1.841 2.88c-.41 1.044-.614 2.177-.614 3.392 0 1.384.212 2.632.634 3.736a8.368 8.368 0 0 0 1.9 2.937c.843.826 1.77 1.44 2.784 1.842 1.01.402 2.104.602 3.28.602h2.034c.665 0 1.253-.03 1.766-.09a9.27 9.27 0 0 0 1.306-.236c.177-.06.351-.124.523-.193V20.14c-.08.077-.162.147-.242.219-.374.332-1.127.968-1.802 1.374-.944.569-2.493.373-2.978.306a4.247 4.247 0 0 1-.993-.267 8.704 8.704 0 0 1-1.65-1.027 4.524 4.524 0 0 1-1.265-1.804c-.283-.718-.422-1.562-.422-2.535.05-.728.18-1.38.384-1.95.205-.572.473-1.05.806-1.442.147-.167.293-.324.442-.473a5.75 5.75 0 0 1 .963-.713c.305-.18 1.92-1.084 4.143-.649 1.957.384 2.79 1.24 3.084 1.647.242.373.374.68.407.757.24.576.315 1.135.325 1.585v10.065h5.184V14.985c0-.923-.2-1.816-.596-2.681l.002-.003ZM69.998 9.34c-.727-.693-1.677-1.208-2.844-1.547-1.17-.34-2.612-.51-4.33-.51h-4.188c-.836 0-1.539.072-2.112.219-.573.146-1.063.34-1.468.581a3.585 3.585 0 0 0-.985.837 8.95 8.95 0 0 0-.662.947V0h-5.906v25.308h5.977v-8.86c0-1.607.4-2.832 1.2-3.683.798-.852 1.95-1.277 3.453-1.277h2.9c.978 0 1.789.085 2.433.255.644.17 1.157.437 1.538.803.382.365.65.826.806 1.384.154.559.232 1.228.232 2.005v9.373h5.977v-9.795c0-1.359-.156-2.555-.465-3.587-.31-1.032-.828-1.895-1.556-2.584v-.003Zm14.538 10.533-5.977-12.58h-5.726L81.1 25.308c-.214.486-.472.875-.77 1.166-.298.29-.657.517-1.073.674a6.064 6.064 0 0 1-1.468.33c-.561.061-1.21.09-1.95.09V33c1.836 0 3.387-.16 4.653-.474 1.265-.316 2.344-.79 3.238-1.423a9.11 9.11 0 0 0 2.309-2.388c.644-.96 1.266-2.097 1.862-3.41L96.24 7.291h-5.727L84.536 19.87v.003Zm27.56-12.58h-1.862c-1.074 0-1.963.08-2.667.237-.705.16-1.284.365-1.736.62-.455.255-.806.54-1.056.857-.25.317-.46.62-.626.911V7.293h-5.906v18.015h6.012v-8.825c0-1.554.429-2.771 1.288-3.646s2.135-1.313 3.83-1.313h.859c1.861 0 3.185.425 3.973 1.277.788.851 1.182 2.079 1.182 3.682v8.825h5.942v-9.81c0-2.723-.715-4.772-2.147-6.146-1.433-1.372-3.795-2.059-7.089-2.059h.003Zm16.21 9.811v.036c0 .059.005.118.005.177m.217 1.418-.02-.033a4.91 4.91 0 0 0 .604 1.374 7.21 7.21 0 0 1-.43-.875m-.369-1.884c0 .41.056.87.185 1.349l.01.033.02.034a5.76 5.76 0 0 1-.215-1.419v.003Zm14.455.842.028-.615-.132-.006-.007.28.083.348.028-.007Z"/>
    <path fill="#000" d="M142.732 18.069v-.31a.116.116 0 0 1-.035-.09v-.128l-3.115-.219h-1.432l-.035.072v.072c-.215.826-.46 1.568-.735 2.224a9.661 9.661 0 0 1-.912 1.714c-.286.388-.692.7-1.218.929-.525.232-1.169.37-1.932.42-1.519-.099-1.559-.168-2.259-.51-.596-.291-.856-.692-1.286-1.205a7.091 7.091 0 0 1-.661-.967 4.876 4.876 0 0 1-.604-1.375l-.01-.033a5.142 5.142 0 0 1-.185-1.349c0-.059-.005-.118-.005-.177v-.072c0-.039.005-.077.005-.116a7.203 7.203 0 0 1 .354-2.146 7.457 7.457 0 0 1 1.074-2.08 5.226 5.226 0 0 1 1.52-1.348c.556-.324 1.198-.523 1.918-.605.154 0 .475.054.515.067.093 0 .513.103.869.29.21.111.606.397.854.585.346.263.583.597.672.736l-6.184 3.577 1.67 3.25 10.837-5.97a14.304 14.304 0 0 0-1.486-2.188 13.217 13.217 0 0 0-1.879-1.86 7.746 7.746 0 0 0-2.344-1.259 9.466 9.466 0 0 0-2.739-.455l-1.432.036c-.167 0-.341.005-.518.018-.179.013-.364.03-.556.054a1.969 1.969 0 0 1-.535.072 2.48 2.48 0 0 1-.268.054 3.263 3.263 0 0 0-.268.054 8.834 8.834 0 0 0-2.47 1.058 11.365 11.365 0 0 0-2.256 1.86 7.31 7.31 0 0 0-1.612 2.7c-.358 1.045-.538 2.25-.538 3.61 0 1.29.215 2.461.644 3.519.43 1.057 1.087 2.012 1.968 2.861a8.406 8.406 0 0 0 2.9 1.843c1.074.401 2.243.602 3.509.602h1.432c1.097 0 2.094-.128 2.989-.383a6.993 6.993 0 0 0 2.344-1.148 9.574 9.574 0 0 0 1.753-1.642 8.634 8.634 0 0 0 1.144-1.786 7.64 7.64 0 0 0 .127-.347c.038-.11.078-.224.126-.348.023-.098.053-.206.088-.33.036-.12.066-.23.089-.328.048-.22.083-.433.106-.639.023-.206.035-.736.035-.785a.128.128 0 0 1-.035-.09l.002.01Z"/>
  </g>
  <defs>
    <clipPath id="a">
      <path fill="#fff" d="M0 0h165v33H0z"/>
    </clipPath>
  </defs>
</svg>
